<?xml version="1.0" encoding="utf-8"?>
<!-- Generator: Adobe Illustrator 20.1.0, SVG Export Plug-In . SVG Version: 6.00 Build 0)  -->
<svg version="1.1" id="Layer_1" xmlns="http://www.w3.org/2000/svg" xmlns:xlink="http://www.w3.org/1999/xlink" x="0px" y="0px"
	 viewBox="0 0 71 71" style="enable-background:new 0 0 71 71;" xml:space="preserve">
<style type="text/css">
	.st0{clip-path:url(#SVGID_2_);}
	.st1{fill:#FFFFFF;}
	.st2{fill:url(#SVGID_3_);}
	.st3{fill:url(#SVGID_4_);}
	.st4{fill:url(#SVGID_5_);}
	.st5{fill:url(#SVGID_6_);}
	.st6{fill:url(#SVGID_7_);}
	.st7{fill:url(#SVGID_8_);}
	.st8{fill:url(#SVGID_9_);}
	.st9{fill:url(#SVGID_10_);}
	.st10{fill:url(#SVGID_11_);}
	.st11{fill:url(#SVGID_12_);}
	.st12{fill:url(#SVGID_13_);}
</style>
<g>
	<defs>
		<rect id="SVGID_1_" x="4.4" width="62.1" height="71"/>
	</defs>
	<clipPath id="SVGID_2_">
		<use xlink:href="#SVGID_1_"  style="overflow:visible;"/>
	</clipPath>
	<g class="st0">
		<g>
			<path class="st1" d="M86.5,54.3h-5.8V43.4H82V53h4.5V54.3z"/>
			<path class="st1" d="M99.6,54.3h-1.5l-0.8-1.8H91l-0.8,1.8h-1.5c1.3-2.7,3.9-8.3,5.1-10.9h0.7L99.6,54.3z M96.7,51.2l-2.5-5.4
				l-2.5,5.4H96.7z"/>
			<path class="st1" d="M105.3,49.7l-1.9,2.1v2.5h-1.3V43.4h1.3v6.4l5.8-6.4h1.8l-4.8,5.3l4.8,5.6h-1.7L105.3,49.7z"/>
			<path class="st1" d="M114.9,44.8v3.4h3.7v1.3h-3.7V53h5.5v1.3h-6.9V43.4h6.9v1.3L114.9,44.8L114.9,44.8z"/>
			<path class="st1" d="M122.8,52.2l1-0.9c1.2,1.2,2.8,1.7,4.4,1.7c1.4,0,3-0.5,3-1.6s-1.4-1.5-3.2-1.9c-1.7-0.3-4.6-1-4.6-3.3
				c0-1.9,2-2.8,3.9-2.8c1.8,0,3.7,0.7,4.8,2l-1,0.8c-0.8-0.9-2.2-1.5-3.7-1.5c-1.3,0-2.6,0.5-2.6,1.5c0,1.5,2.5,1.9,4,2.3
				c2.1,0.5,3.7,1.3,3.7,3c0,2-2.1,2.9-4.2,2.9C126.2,54.4,124.3,53.7,122.8,52.2z"/>
		</g>
		<g>
			<g>
				<path class="st1" d="M87.1,17.4c2.8,0,4.8,2,4.8,4.8c0,1.5-0.6,3.1-1.7,3.6c1.5,0.5,2.4,2.3,2.4,3.9c0,2.9-2,4.9-4.9,4.9h-7.2
					V17.4H87.1z M82.6,25h4.9c1.3,0,2.2-0.8,2.3-2.7c0-1.6-1-2.7-2.7-2.7h-4.5C82.6,19.6,82.6,25,82.6,25z M90.5,29.8
					c0-1.7-1-2.7-2.7-2.7h-5.1v5.5h5.1C89.4,32.5,90.5,31.5,90.5,29.8z"/>
				<path class="st1" d="M111.8,34.6h-2.3l-1.3-2.8h-9.9L97,34.6h-2.3c2-4.3,6.1-13.1,8.1-17.3h1L111.8,34.6z M107.3,29.7l-4-8.5
					l-4,8.5H107.3z"/>
				<path class="st1" d="M128.3,17.3v17.3h-1.9l-9.7-13.7v13.7h-2V17.3h2c0,0,8.8,12.6,9.6,13.7V17.3H128.3z"/>
				<path class="st1" d="M147,17.3v17.3h-1.9l-9.7-13.7v13.7h-2V17.3h2c0,0,8.8,12.6,9.6,13.7V17.3H147z"/>
				<path class="st1" d="M168.2,26c0,5.3-3.5,8.7-8.7,8.8c-5.2,0-8.7-3.5-8.7-8.7s3.5-8.7,8.7-8.7C164.6,17.2,168.2,20.8,168.2,26z
					 M166,26c0-4.1-2.5-6.6-6.4-6.6c-4.1,0-6.4,2.7-6.5,6.6c0.1,4.1,2.5,6.6,6.5,6.6C163.5,32.5,166,30,166,26z"/>
				<path class="st1" d="M184.1,31l1.5,1.6c-1.5,1.4-3.5,2.2-5.7,2.2c-4.8,0-8.7-3.9-8.7-8.7s3.9-8.7,8.7-8.7c2.2,0,4.1,0.8,5.7,2.2
					l-1.5,1.6c-1.2-0.9-2.6-1.6-4.2-1.6c-3.7,0-6.6,3.2-6.6,6.6s2.9,6.6,6.6,6.6C181.5,32.6,183,31.9,184.1,31z"/>
				<path class="st1" d="M195.6,27.4l-3,3.3v4h-2.2V17.4h2.1v10.1l9.2-10.2h2.9l-7.6,8.4l7.6,8.9h-2.7L195.6,27.4z"/>
				<path class="st1" d="M215.4,17.4c2.8,0,4.8,2,4.8,4.8c0,1.5-0.6,3.1-1.7,3.6c1.5,0.5,2.4,2.3,2.4,3.9c0,2.9-2,4.9-4.9,4.9h-7.2
					V17.4H215.4z M210.9,25h4.9c1.3,0,2.2-0.8,2.3-2.7c0-1.6-1-2.7-2.7-2.7h-4.5V25z M218.8,29.8c0-1.7-1-2.7-2.7-2.7H211v5.5h5.1
					C217.6,32.5,218.7,31.5,218.8,29.8z"/>
				<path class="st1" d="M225,26v-8.7h2.1V26c0,5.4,2.6,6.5,5.5,6.5c4.2-0.1,5.5-2.9,5.5-6.5v-8.7h2.1V26c0,5.3-2.5,8.6-7.7,8.7
					C227.6,34.6,225,31.5,225,26z"/>
				<path class="st1" d="M254.1,28.4l3.2,6.2h-2.5L252,29h-4.8v5.6h-2.1V17.3h6.1c3.8,0,6.3,2.5,6.4,5.8
					C257.5,25.5,256.2,27.6,254.1,28.4z M255.3,23.2c0-2.1-1.6-3.7-4.2-3.7h-4v7.4h4C253.5,26.9,255.3,25.5,255.3,23.2z"/>
				<path class="st1" d="M276,17.3v17.3h-1.9l-9.7-13.7v13.7h-2V17.3h2c0,0,8.8,12.6,9.6,13.7V17.3H276z"/>
			</g>
		</g>
		<g>
			<g>
				
					<linearGradient id="SVGID_3_" gradientUnits="userSpaceOnUse" x1="47.6458" y1="32.4" x2="56.2593" y2="32.4" gradientTransform="matrix(1 0 0 -1 0 74)">
					<stop  offset="0" style="stop-color:#3B7296"/>
					<stop  offset="1" style="stop-color:#18B48A"/>
				</linearGradient>
				<polygon class="st2" points="46.5,42.7 54.5,47.3 66.5,40.5 58.4,35.9 				"/>
				
					<linearGradient id="SVGID_4_" gradientUnits="userSpaceOnUse" x1="2723.0952" y1="42.7" x2="2723.0952" y2="42.7" gradientTransform="matrix(-1 0 0 -1 2789.6431 74)">
					<stop  offset="0" style="stop-color:#3B7296"/>
					<stop  offset="1" style="stop-color:#18B48A"/>
				</linearGradient>
				<path class="st3" d="M66.5,31.3L66.5,31.3L66.5,31.3z"/>
				
					<linearGradient id="SVGID_5_" gradientUnits="userSpaceOnUse" x1="2723.0952" y1="42.7" x2="2723.0952" y2="42.7" gradientTransform="matrix(-1 0 0 -1 2789.6431 74)">
					<stop  offset="0" style="stop-color:#3B7296"/>
					<stop  offset="1" style="stop-color:#18B48A"/>
				</linearGradient>
				<path class="st4" d="M66.5,31.3L66.5,31.3L66.5,31.3z"/>
			</g>
			<g>
				
					<linearGradient id="SVGID_6_" gradientUnits="userSpaceOnUse" x1="36.6567" y1="61.75" x2="68.1944" y2="61.75" gradientTransform="matrix(1 0 0 -1 0 74)">
					<stop  offset="0" style="stop-color:#3B7296"/>
					<stop  offset="1" style="stop-color:#18B48A"/>
				</linearGradient>
				<polygon class="st5" points="35.4,13.6 54.5,24.5 66.5,17.7 35.4,0 				"/>
			</g>
			
				<linearGradient id="SVGID_7_" gradientUnits="userSpaceOnUse" x1="11.8115" y1="38.1" x2="3.6891" y2="38.1" gradientTransform="matrix(1 0 0 -1 0 74)">
				<stop  offset="0" style="stop-color:#3B7296"/>
				<stop  offset="1" style="stop-color:#18B48A"/>
			</linearGradient>
			<polygon class="st6" points="12.4,35.9 4.4,31.3 4.4,40.5 			"/>
			
				<linearGradient id="SVGID_8_" gradientUnits="userSpaceOnUse" x1="9.9004" y1="32.4" x2="19.9454" y2="32.4" gradientTransform="matrix(1 0 0 -1 0 74)">
				<stop  offset="0" style="stop-color:#3B7296"/>
				<stop  offset="1" style="stop-color:#18B48A"/>
			</linearGradient>
			<polygon class="st7" points="24.4,42.7 12.4,35.9 4.4,40.5 16.4,47.3 			"/>
			
				<linearGradient id="SVGID_9_" gradientUnits="userSpaceOnUse" x1="34.7455" y1="17.85" x2="5.565" y2="17.85" gradientTransform="matrix(1 0 0 -1 0 74)">
				<stop  offset="0" style="stop-color:#3B7296"/>
				<stop  offset="1" style="stop-color:#18B48A"/>
			</linearGradient>
			<polygon class="st8" points="16.4,47.3 4.4,40.5 4.4,54.1 35.4,71.8 35.4,58.1 			"/>
			<g>
				
					<linearGradient id="SVGID_10_" gradientUnits="userSpaceOnUse" x1="5.1225" y1="61.75" x2="30.9939" y2="61.75" gradientTransform="matrix(1 0 0 -1 0 74)">
					<stop  offset="0" style="stop-color:#3B7296"/>
					<stop  offset="1" style="stop-color:#18B48A"/>
				</linearGradient>
				<polygon class="st9" points="4.4,17.7 16.4,24.5 35.4,13.6 35.4,0 				"/>
			</g>
			
				<linearGradient id="SVGID_11_" gradientUnits="userSpaceOnUse" x1="35.4479" y1="43.8" x2="4.025" y2="43.8" gradientTransform="matrix(1 0 0 -1 0 74)">
				<stop  offset="0" style="stop-color:#3B7296"/>
				<stop  offset="1" style="stop-color:#18B48A"/>
			</linearGradient>
			<polygon class="st10" points="4.4,17.7 4.4,31.3 24.4,42.7 35.4,36.4 35.4,35.4 			"/>
			
				<linearGradient id="SVGID_12_" gradientUnits="userSpaceOnUse" x1="66.2414" y1="43.8" x2="35.4156" y2="43.8" gradientTransform="matrix(1 0 0 -1 0 74)">
				<stop  offset="0" style="stop-color:#3B7296"/>
				<stop  offset="1" style="stop-color:#18B48A"/>
			</linearGradient>
			<polygon class="st11" points="35.4,35.4 35.4,36.4 46.5,42.7 66.5,31.3 66.5,17.7 			"/>
			
				<linearGradient id="SVGID_13_" gradientUnits="userSpaceOnUse" x1="65.3241" y1="17.85" x2="35.7088" y2="17.85" gradientTransform="matrix(1 0 0 -1 0 74)">
				<stop  offset="0" style="stop-color:#3B7296"/>
				<stop  offset="1" style="stop-color:#18B48A"/>
			</linearGradient>
			<polygon class="st12" points="35.4,58.1 35.4,71.8 66.5,54.1 66.5,40.5 			"/>
		</g>
	</g>
</g>
</svg>
