<?xml version="1.0" encoding="utf-8"?>
<!-- Generator: Adobe Illustrator 19.2.1, SVG Export Plug-In . SVG Version: 6.00 Build 0)  -->
<svg version="1.1" id="Layer_1" xmlns="http://www.w3.org/2000/svg" xmlns:xlink="http://www.w3.org/1999/xlink" x="0px" y="0px"
	 viewBox="0 0 271.6 71.8" style="enable-background:new 0 0 271.6 71.8;" width="271.6" height="71.8" xml:space="preserve">
<style type="text/css">
	.st0{fill:#FFFFFF;}
	.st1{fill:url(#SVGID_1_);}
	.st2{fill:url(#SVGID_2_);}
	.st3{fill:url(#SVGID_3_);}
	.st4{fill:url(#SVGID_4_);}
	.st5{fill:url(#SVGID_5_);}
	.st6{fill:url(#SVGID_6_);}
	.st7{fill:url(#SVGID_7_);}
	.st8{fill:url(#SVGID_8_);}
	.st9{fill:url(#SVGID_9_);}
	.st10{fill:url(#SVGID_10_);}
	.st11{fill:url(#SVGID_11_);}
</style>
<g>
	<g>
		<path class="st0" d="M82.1,54.3h-5.8V43.4h1.3V53h4.5V54.3z"/>
		<path class="st0" d="M95.2,54.3h-1.5l-0.8-1.8h-6.3l-0.8,1.8h-1.5c1.3-2.7,3.9-8.3,5.1-10.9h0.7L95.2,54.3z M92.3,51.2l-2.5-5.4
			l-2.5,5.4H92.3z"/>
		<path class="st0" d="M100.9,49.7L99,51.8v2.5h-1.3V43.4H99v6.4l5.8-6.4h1.8l-4.8,5.3l4.8,5.6h-1.7L100.9,49.7z"/>
		<path class="st0" d="M110.5,44.8v3.4h3.7v1.3h-3.7V53h5.5v1.3h-6.9V43.4h6.9v1.3H110.5z"/>
		<path class="st0" d="M118.4,52.2l1-0.9c1.2,1.2,2.8,1.7,4.4,1.7c1.4,0,3-0.5,3-1.6c0-1.1-1.4-1.5-3.2-1.9c-1.7-0.3-4.6-1-4.6-3.3
			c0-1.9,2-2.8,3.9-2.8c1.8,0,3.7,0.7,4.8,2l-1,0.8c-0.8-0.9-2.2-1.5-3.7-1.5c-1.3,0-2.6,0.5-2.6,1.5c0,1.5,2.5,1.9,4,2.3
			c2.1,0.5,3.7,1.3,3.7,3c0,2-2.1,2.9-4.2,2.9C121.8,54.4,119.9,53.7,118.4,52.2z"/>
	</g>
	<g>
		<g>
			<path class="st0" d="M82.7,17.4c2.8,0,4.8,2,4.8,4.8c0,1.5-0.6,3.1-1.7,3.6c1.5,0.5,2.4,2.3,2.4,3.9c0,2.9-2,4.9-4.9,4.9h-7.2
				V17.4H82.7z M78.2,25h4.9c1.3,0,2.2-0.8,2.3-2.7c0-1.6-1-2.7-2.7-2.7h-4.5V25z M86.1,29.8c0-1.7-1-2.7-2.7-2.7h-5.1v5.5h5.1
				C85,32.5,86.1,31.5,86.1,29.8z"/>
			<path class="st0" d="M107.4,34.6h-2.3l-1.3-2.8h-9.9l-1.3,2.8h-2.3c2-4.3,6.1-13.1,8.1-17.3h1L107.4,34.6z M102.9,29.7l-4-8.5
				l-4,8.5H102.9z"/>
			<path class="st0" d="M123.9,17.3v17.3h-1.9l-9.7-13.7v13.7h-2V17.3h2c0,0,8.8,12.6,9.6,13.7V17.3H123.9z"/>
			<path class="st0" d="M142.6,17.3v17.3h-1.9L131,20.9v13.7h-2V17.3h2c0,0,8.8,12.6,9.6,13.7V17.3H142.6z"/>
			<path class="st0" d="M163.8,26c0,5.3-3.5,8.7-8.7,8.8c-5.2,0-8.7-3.5-8.7-8.7c0-5.2,3.5-8.7,8.7-8.7
				C160.2,17.2,163.8,20.8,163.8,26z M161.6,26c0-4.1-2.5-6.6-6.4-6.6c-4.1,0-6.4,2.7-6.5,6.6c0.1,4.1,2.5,6.6,6.5,6.6
				C159.1,32.5,161.6,30,161.6,26z"/>
			<path class="st0" d="M179.7,31l1.5,1.6c-1.5,1.4-3.5,2.2-5.7,2.2c-4.8,0-8.7-3.9-8.7-8.7c0-4.8,3.9-8.7,8.7-8.7
				c2.2,0,4.1,0.8,5.7,2.2l-1.5,1.6c-1.2-0.9-2.6-1.6-4.2-1.6c-3.7,0-6.6,3.2-6.6,6.6c0,3.4,2.9,6.6,6.6,6.6
				C177.1,32.6,178.6,31.9,179.7,31z"/>
			<path class="st0" d="M191.2,27.4l-3,3.3v4H186V17.4h2.1v10.1l9.2-10.2h2.9l-7.6,8.4l7.6,8.9h-2.7L191.2,27.4z"/>
			<path class="st0" d="M211,17.4c2.8,0,4.8,2,4.8,4.8c0,1.5-0.6,3.1-1.7,3.6c1.5,0.5,2.4,2.3,2.4,3.9c0,2.9-2,4.9-4.9,4.9h-7.2
				V17.4H211z M206.5,25h4.9c1.3,0,2.2-0.8,2.3-2.7c0-1.6-1-2.7-2.7-2.7h-4.5V25z M214.4,29.8c0-1.7-1-2.7-2.7-2.7h-5.1v5.5h5.1
				C213.2,32.5,214.3,31.5,214.4,29.8z"/>
			<path class="st0" d="M220.6,26v-8.7h2.1V26c0,5.4,2.6,6.5,5.5,6.5c4.2-0.1,5.5-2.9,5.5-6.5v-8.7h2.1V26c0,5.3-2.5,8.6-7.7,8.7
				C223.2,34.6,220.6,31.5,220.6,26z"/>
			<path class="st0" d="M249.7,28.4l3.2,6.2h-2.5l-2.8-5.6c0,0-4.8,0-4.8,0v5.6h-2.1V17.3h6.1c3.8,0,6.3,2.5,6.4,5.8
				C253.1,25.5,251.8,27.6,249.7,28.4z M250.9,23.2c0-2.1-1.6-3.7-4.2-3.7h-4v7.4h4C249.1,26.9,250.9,25.5,250.9,23.2z"/>
			<path class="st0" d="M271.6,17.3v17.3h-1.9L260,20.9v13.7h-2V17.3h2c0,0,8.8,12.6,9.6,13.7V17.3H271.6z"/>
		</g>
	</g>
	<g>
		<g>
			<linearGradient id="SVGID_1_" gradientUnits="userSpaceOnUse" x1="43.1979" y1="41.5943" x2="51.8114" y2="41.5943">
				<stop  offset="0" style="stop-color:#3B7296"/>
				<stop  offset="1" style="stop-color:#18B48A"/>
			</linearGradient>
			<polygon class="st1" points="42.1,42.7 50.1,47.3 62.1,40.5 54,35.9 			"/>
			
				<linearGradient id="SVGID_2_" gradientUnits="userSpaceOnUse" x1="3724.6807" y1="31.3181" x2="3724.6892" y2="31.3181" gradientTransform="matrix(-1 0 0 1 3786.7473 0)">
				<stop  offset="0" style="stop-color:#3B7296"/>
				<stop  offset="1" style="stop-color:#18B48A"/>
			</linearGradient>
			<polygon class="st2" points="62.1,31.3 62.1,31.3 62.1,31.3 			"/>
			
				<linearGradient id="SVGID_3_" gradientUnits="userSpaceOnUse" x1="3724.6807" y1="31.3181" x2="3724.6892" y2="31.3181" gradientTransform="matrix(-1 0 0 1 3786.7473 0)">
				<stop  offset="0" style="stop-color:#3B7296"/>
				<stop  offset="1" style="stop-color:#18B48A"/>
			</linearGradient>
			<polygon class="st3" points="62.1,31.3 62.1,31.3 62.1,31.3 			"/>
		</g>
		<g>
			<linearGradient id="SVGID_4_" gradientUnits="userSpaceOnUse" x1="32.2088" y1="12.2607" x2="63.7465" y2="12.2607">
				<stop  offset="0" style="stop-color:#3B7296"/>
				<stop  offset="1" style="stop-color:#18B48A"/>
			</linearGradient>
			<polygon class="st4" points="31,13.6 50.1,24.5 62.1,17.7 31,0 			"/>
		</g>
		<linearGradient id="SVGID_5_" gradientUnits="userSpaceOnUse" x1="7.3636" y1="35.8892" x2="-0.7588" y2="35.8892">
			<stop  offset="0" style="stop-color:#3B7296"/>
			<stop  offset="1" style="stop-color:#18B48A"/>
		</linearGradient>
		<polygon class="st5" points="8,35.9 0,31.3 0,40.5 		"/>
		<linearGradient id="SVGID_6_" gradientUnits="userSpaceOnUse" x1="5.4525" y1="41.5914" x2="15.4975" y2="41.5914">
			<stop  offset="0" style="stop-color:#3B7296"/>
			<stop  offset="1" style="stop-color:#18B48A"/>
		</linearGradient>
		<polygon class="st6" points="20,42.7 8,35.9 0,40.5 12,47.3 		"/>
		<linearGradient id="SVGID_7_" gradientUnits="userSpaceOnUse" x1="30.2976" y1="56.1269" x2="1.1171" y2="56.1269">
			<stop  offset="0" style="stop-color:#3B7296"/>
			<stop  offset="1" style="stop-color:#18B48A"/>
		</linearGradient>
		<polygon class="st7" points="12,47.3 0,40.5 0,54.1 31,71.8 31,58.1 		"/>
		<g>
			<linearGradient id="SVGID_8_" gradientUnits="userSpaceOnUse" x1="0.6746" y1="12.2612" x2="26.546" y2="12.2612">
				<stop  offset="0" style="stop-color:#3B7296"/>
				<stop  offset="1" style="stop-color:#18B48A"/>
			</linearGradient>
			<polygon class="st8" points="0,17.7 12,24.5 31,13.6 31,0 			"/>
		</g>
		<linearGradient id="SVGID_9_" gradientUnits="userSpaceOnUse" x1="30.976" y1="30.1963" x2="-0.4469" y2="30.1963">
			<stop  offset="0" style="stop-color:#3B7296"/>
			<stop  offset="1" style="stop-color:#18B48A"/>
		</linearGradient>
		<polygon class="st9" points="0,17.7 0,31.3 20,42.7 31,36.4 31,35.4 		"/>
		<linearGradient id="SVGID_10_" gradientUnits="userSpaceOnUse" x1="61.7935" y1="30.1963" x2="30.9677" y2="30.1963">
			<stop  offset="0" style="stop-color:#3B7296"/>
			<stop  offset="1" style="stop-color:#18B48A"/>
		</linearGradient>
		<polygon class="st10" points="31,35.4 31,36.4 42.1,42.7 62.1,31.3 62.1,17.7 		"/>
		<linearGradient id="SVGID_11_" gradientUnits="userSpaceOnUse" x1="60.8762" y1="56.1298" x2="31.2609" y2="56.1298">
			<stop  offset="0" style="stop-color:#3B7296"/>
			<stop  offset="1" style="stop-color:#18B48A"/>
		</linearGradient>
		<polygon class="st11" points="31,58.1 31,71.8 62.1,54.1 62.1,40.5 		"/>
	</g>
</g>
</svg>
