<?xml version="1.0" encoding="utf-8"?>
<!-- Generator: Adobe Illustrator 20.1.0, SVG Export Plug-In . SVG Version: 6.00 Build 0)  -->
<svg version="1.1" id="Layer_1" xmlns="http://www.w3.org/2000/svg" xmlns:xlink="http://www.w3.org/1999/xlink" x="0px" y="0px"
	 viewBox="0 0 432.5 246.4" style="enable-background:new 0 0 432.5 246.4;" xml:space="preserve">
<style type="text/css">
	.st0{fill:url(#SVGID_1_);}
	.st1{fill:#FFFFFF;}
	.st2{fill:url(#SVGID_2_);}
	.st3{fill:url(#SVGID_3_);}
	.st4{fill:url(#SVGID_4_);}
	.st5{fill:url(#SVGID_5_);}
	.st6{fill:url(#SVGID_6_);}
	.st7{fill:url(#SVGID_7_);}
	.st8{fill:url(#SVGID_8_);}
	.st9{fill:url(#SVGID_9_);}
	.st10{fill:url(#SVGID_10_);}
	.st11{fill:url(#SVGID_11_);}
	.st12{fill:url(#SVGID_12_);}
</style>
<linearGradient id="SVGID_1_" gradientUnits="userSpaceOnUse" x1="407.0427" y1="123.2084" x2="-252.0654" y2="123.2084">
	<stop  offset="0" style="stop-color:#3B7298"/>
	<stop  offset="1" style="stop-color:#18B68C"/>
</linearGradient>
<polygon class="st0" points="0,0 0,246.4 432.5,0 "/>
<g>
	<g>
		<g>
			<path class="st1" d="M149.9,65h-3.6v-6.7h0.8v5.9h2.8V65z"/>
			<path class="st1" d="M158,65h-0.9l-0.5-1.1h-3.9l-0.5,1.1h-0.9c0.8-1.7,2.4-5.1,3.1-6.7h0.4L158,65z M156.2,63.1l-1.5-3.3
				l-1.5,3.3H156.2z"/>
			<path class="st1" d="M161.5,62.2l-1.2,1.3V65h-0.8v-6.7h0.8v3.9l3.6-3.9h1.1l-2.9,3.3L165,65h-1L161.5,62.2z"/>
			<path class="st1" d="M167.4,59.2v2.1h2.3V62h-2.3v2.1h3.4V65h-4.2v-6.7h4.2v0.8L167.4,59.2L167.4,59.2z"/>
			<path class="st1" d="M172.2,63.7l0.6-0.6c0.7,0.7,1.7,1,2.7,1c0.9,0,1.8-0.3,1.8-1s-0.9-0.9-2-1.2c-1-0.2-2.8-0.6-2.8-2
				c0-1.2,1.2-1.7,2.4-1.7c1.1,0,2.3,0.4,2.9,1.2l-0.6,0.5c-0.5-0.6-1.4-0.9-2.3-0.9c-0.8,0-1.6,0.3-1.6,0.9c0,0.9,1.5,1.2,2.5,1.4
				c1.3,0.3,2.3,0.8,2.3,1.8c0,1.2-1.3,1.8-2.6,1.8C174.3,65.1,173.2,64.6,172.2,63.7z"/>
		</g>
		<g>
			<g>
				<path class="st1" d="M150.3,42.3c1.7,0,2.9,1.2,2.9,2.9c0,0.9-0.4,1.9-1,2.2c0.9,0.3,1.5,1.4,1.5,2.4c0,1.8-1.2,3-3,3h-4.4V42.3
					H150.3z M147.5,47h3c0.8,0,1.4-0.5,1.4-1.7c0-1-0.6-1.7-1.7-1.7h-2.8C147.5,43.7,147.5,47,147.5,47z M152.4,49.9
					c0-1-0.6-1.7-1.7-1.7h-3.1v3.4h3.1C151.7,51.6,152.4,51,152.4,49.9z"/>
				<path class="st1" d="M165.5,52.9h-1.4l-0.8-1.7h-6.1l-0.8,1.7H155c1.2-2.6,3.7-8,5-10.6h0.6L165.5,52.9z M162.7,49.9l-2.5-5.2
					l-2.5,5.2H162.7z"/>
				<path class="st1" d="M175.6,42.3v10.6h-1.2l-6-8.4v8.4h-1.2V42.3h1.2c0,0,5.4,7.7,5.9,8.4v-8.4H175.6z"/>
				<path class="st1" d="M187.1,42.3v10.6h-1.2l-6-8.4v8.4h-1.2V42.3h1.2c0,0,5.4,7.7,5.9,8.4v-8.4H187.1z"/>
				<path class="st1" d="M200.1,47.6c0,3.3-2.1,5.3-5.3,5.4c-3.2,0-5.3-2.1-5.3-5.3s2.1-5.3,5.3-5.3
					C197.9,42.2,200.1,44.4,200.1,47.6z M198.8,47.6c0-2.5-1.5-4.1-3.9-4.1c-2.5,0-3.9,1.7-4,4.1c0.1,2.5,1.5,4.1,4,4.1
					C197.2,51.6,198.8,50.1,198.8,47.6z"/>
				<path class="st1" d="M209.9,50.7l0.9,1c-0.9,0.9-2.1,1.4-3.5,1.4c-2.9,0-5.3-2.4-5.3-5.3c0-2.9,2.4-5.3,5.3-5.3
					c1.4,0,2.5,0.5,3.5,1.4l-0.9,1c-0.7-0.6-1.6-1-2.6-1c-2.3,0-4.1,2-4.1,4.1c0,2.1,1.8,4.1,4.1,4.1
					C208.3,51.7,209.2,51.2,209.9,50.7z"/>
				<path class="st1" d="M217,48.5l-1.8,2V53h-1.4V42.3h1.3v6.2l5.7-6.3h1.8l-4.7,5.2l4.7,5.5h-1.7L217,48.5z"/>
				<path class="st1" d="M229.1,42.3c1.7,0,2.9,1.2,2.9,2.9c0,0.9-0.4,1.9-1,2.2c0.9,0.3,1.5,1.4,1.5,2.4c0,1.8-1.2,3-3,3h-4.4V42.3
					H229.1z M226.3,47h3c0.8,0,1.4-0.5,1.4-1.7c0-1-0.6-1.7-1.7-1.7h-2.8V47z M231.2,49.9c0-1-0.6-1.7-1.7-1.7h-3.1v3.4h3.1
					C230.5,51.6,231.1,51,231.2,49.9z"/>
				<path class="st1" d="M235,47.6v-5.3h1.3v5.3c0,3.3,1.6,4,3.4,4c2.6-0.1,3.4-1.8,3.4-4v-5.3h1.3v5.3c0,3.3-1.5,5.3-4.7,5.3
					C236.6,52.9,235,51,235,47.6z"/>
				<path class="st1" d="M252.9,49.1l2,3.8h-1.5l-1.7-3.4h-2.9v3.4h-1.3V42.3h3.7c2.3,0,3.9,1.5,3.9,3.6
					C255,47.3,254.2,48.6,252.9,49.1z M253.6,45.9c0-1.3-1-2.3-2.6-2.3h-2.5v4.5h2.5C252.5,48.2,253.6,47.3,253.6,45.9z"/>
				<path class="st1" d="M266.3,42.3v10.6h-1.2l-6-8.4v8.4H258V42.3h1.2c0,0,5.4,7.7,5.9,8.4v-8.4H266.3z"/>
			</g>
		</g>
		<g>
			<g>
				
					<linearGradient id="SVGID_2_" gradientUnits="userSpaceOnUse" x1="-118.6497" y1="538.8417" x2="-113.3593" y2="538.8417" gradientTransform="matrix(1 0 0 -1 244.6965 596.0364)">
					<stop  offset="0" style="stop-color:#FFFFFF;stop-opacity:0.4"/>
					<stop  offset="1" style="stop-color:#FFFFFF"/>
				</linearGradient>
				<polygon class="st2" points="125.4,57.9 130.3,60.7 137.7,56.5 132.7,53.7 				"/>
				
					<linearGradient id="SVGID_3_" gradientUnits="userSpaceOnUse" x1="3893.7874" y1="545.168" x2="3893.7874" y2="545.168" gradientTransform="matrix(-1 0 0 -1 4031.4438 596.0364)">
					<stop  offset="0" style="stop-color:#3B7296"/>
					<stop  offset="1" style="stop-color:#18B48A"/>
				</linearGradient>
				<path class="st3" d="M137.7,50.9L137.7,50.9L137.7,50.9z"/>
				
					<linearGradient id="SVGID_4_" gradientUnits="userSpaceOnUse" x1="3893.7874" y1="545.168" x2="3893.7874" y2="545.168" gradientTransform="matrix(-1 0 0 -1 4031.4438 596.0364)">
					<stop  offset="0" style="stop-color:#3B7296"/>
					<stop  offset="1" style="stop-color:#18B48A"/>
				</linearGradient>
				<path class="st4" d="M137.7,50.9L137.7,50.9L137.7,50.9z"/>
			</g>
			<g>
				
					<linearGradient id="SVGID_5_" gradientUnits="userSpaceOnUse" x1="-125.3993" y1="556.8686" x2="-106.0287" y2="556.8686" gradientTransform="matrix(1 0 0 -1 244.6965 596.0364)">
					<stop  offset="0" style="stop-color:#FFFFFF;stop-opacity:0.4"/>
					<stop  offset="1" style="stop-color:#FFFFFF"/>
				</linearGradient>
				<polygon class="st5" points="118.6,40 130.3,46.7 137.7,42.5 118.6,31.6 				"/>
			</g>
			
				<linearGradient id="SVGID_6_" gradientUnits="userSpaceOnUse" x1="-140.6594" y1="542.3427" x2="-145.6482" y2="542.3427" gradientTransform="matrix(1 0 0 -1 244.6965 596.0364)">
				<stop  offset="0" style="stop-color:#FFFFFF;stop-opacity:0.4"/>
				<stop  offset="1" style="stop-color:#FFFFFF"/>
			</linearGradient>
			<polygon class="st6" points="104.4,53.7 99.5,50.9 99.5,56.5 			"/>
			
				<linearGradient id="SVGID_7_" gradientUnits="userSpaceOnUse" x1="-141.8332" y1="538.8417" x2="-135.6635" y2="538.8417" gradientTransform="matrix(1 0 0 -1 244.6965 596.0364)">
				<stop  offset="0" style="stop-color:#FFFFFF;stop-opacity:0.4"/>
				<stop  offset="1" style="stop-color:#FFFFFF"/>
			</linearGradient>
			<polygon class="st7" points="111.8,57.9 104.4,53.7 99.5,56.5 106.9,60.7 			"/>
			
				<linearGradient id="SVGID_8_" gradientUnits="userSpaceOnUse" x1="-126.5732" y1="529.905" x2="-144.496" y2="529.905" gradientTransform="matrix(1 0 0 -1 244.6965 596.0364)">
				<stop  offset="0" style="stop-color:#FFFFFF;stop-opacity:0.4"/>
				<stop  offset="1" style="stop-color:#FFFFFF"/>
			</linearGradient>
			<polygon class="st8" points="106.9,60.7 99.5,56.5 99.5,64.9 118.6,75.7 118.6,67.3 			"/>
			<g>
				
					<linearGradient id="SVGID_9_" gradientUnits="userSpaceOnUse" x1="-144.7678" y1="556.8686" x2="-128.8774" y2="556.8686" gradientTransform="matrix(1 0 0 -1 244.6965 596.0364)">
					<stop  offset="0" style="stop-color:#FFFFFF;stop-opacity:0.4"/>
					<stop  offset="1" style="stop-color:#FFFFFF"/>
				</linearGradient>
				<polygon class="st9" points="99.5,42.5 106.9,46.7 118.6,40 118.6,31.6 				"/>
			</g>
			
				<linearGradient id="SVGID_10_" gradientUnits="userSpaceOnUse" x1="-126.1418" y1="545.8436" x2="-145.4419" y2="545.8436" gradientTransform="matrix(1 0 0 -1 244.6965 596.0364)">
				<stop  offset="0" style="stop-color:#FFFFFF;stop-opacity:0.4"/>
				<stop  offset="1" style="stop-color:#FFFFFF"/>
			</linearGradient>
			<polygon class="st10" points="99.5,42.5 99.5,50.9 111.8,57.9 118.6,54 118.6,53.4 			"/>
			
				<linearGradient id="SVGID_11_" gradientUnits="userSpaceOnUse" x1="-107.2282" y1="545.8436" x2="-126.1616" y2="545.8436" gradientTransform="matrix(1 0 0 -1 244.6965 596.0364)">
				<stop  offset="0" style="stop-color:#FFFFFF;stop-opacity:0.4"/>
				<stop  offset="1" style="stop-color:#FFFFFF"/>
			</linearGradient>
			<polygon class="st11" points="118.6,53.4 118.6,54 125.4,57.9 137.7,50.9 137.7,42.5 			"/>
			
				<linearGradient id="SVGID_12_" gradientUnits="userSpaceOnUse" x1="-107.7916" y1="529.905" x2="-125.9815" y2="529.905" gradientTransform="matrix(1 0 0 -1 244.6965 596.0364)">
				<stop  offset="0" style="stop-color:#FFFFFF;stop-opacity:0.4"/>
				<stop  offset="1" style="stop-color:#FFFFFF"/>
			</linearGradient>
			<polygon class="st12" points="118.6,67.3 118.6,75.7 137.7,64.9 137.7,56.5 			"/>
		</g>
	</g>
</g>
</svg>
