<?xml version="1.0" encoding="utf-8"?>
<!-- Generator: Adobe Illustrator 20.0.0, SVG Export Plug-In . SVG Version: 6.00 Build 0)  -->
<svg version="1.1" id="Layer_1" xmlns="http://www.w3.org/2000/svg" xmlns:xlink="http://www.w3.org/1999/xlink" x="0px" y="0px"
	 viewBox="0 0 49.1 66.2" style="enable-background:new 0 0 49.1 66.2;" xml:space="preserve">
<style type="text/css">
	.st0{fill:url(#XMLID_2_);}
	.st1{fill:none;stroke:#FFFFFF;stroke-linejoin:round;stroke-miterlimit:10;}
</style>
<g>
	<linearGradient id="XMLID_2_" gradientUnits="userSpaceOnUse" x1="24.5317" y1="66.0096" x2="24.5317" y2="0.9399">
		<stop  offset="0" style="stop-color:#D8DF26"/>
		<stop  offset="0.5" style="stop-color:#4DBA91"/>
		<stop  offset="1" style="stop-color:#3C7397"/>
	</linearGradient>
	<path id="XMLID_6_" class="st0" d="M49.1,24.5c0,13.5-24.5,41.7-24.5,41.7S0,38.1,0,24.5S11,0,24.5,0S49.1,11,49.1,24.5z"/>
	<g>
		<g>
			<polygon class="st1" points="29.6,29 33.3,31.1 38.8,28 35.1,25.8 			"/>
			<polygon class="st1" points="38.8,23.7 38.8,23.7 38.8,23.7 			"/>
			<polygon class="st1" points="38.8,23.7 38.8,23.7 38.8,23.7 			"/>
		</g>
		<g>
			<polygon class="st1" points="24.5,15.6 33.3,20.6 38.8,17.5 24.5,9.3 			"/>
		</g>
		<polygon class="st1" points="14,25.8 10.3,23.7 10.3,27.9 		"/>
		<polygon class="st1" points="19.5,29 14,25.8 10.3,27.9 15.8,31.1 		"/>
		<polygon class="st1" points="15.8,31.1 10.3,27.9 10.3,34.2 24.5,42.4 24.5,36.1 		"/>
		<g>
			<polygon class="st1" points="10.3,17.5 15.8,20.6 24.5,15.6 24.5,9.3 			"/>
		</g>
		<polygon class="st1" points="10.3,17.5 10.3,23.7 19.5,29 24.5,26.1 24.5,25.6 		"/>
		<polygon class="st1" points="24.5,25.6 24.5,26.1 29.6,29 38.8,23.7 38.8,17.5 		"/>
		<polygon class="st1" points="24.5,36.1 24.5,42.4 38.8,34.2 38.8,28 		"/>
	</g>
</g>
</svg>
