<svg id="Layer_1" data-name="Layer 1" xmlns="http://www.w3.org/2000/svg" viewBox="0 0 496.35 182.85">
	<defs>
		<style>
			.cls-1,.cls-2{fill:#22ad8e;}
			.cls-1{stroke:#fff;}
			.cls-3{fill:#fff;}
			.cls-4{fill:#397e9e;}
			.cls-5{fill:#328f9b;}
			.cls-6{fill:#35899c;}
			.cls-7{fill:#2d9b96;}

			#floor1:hover .cls-1,
			#floor1:hover .cls-2,
			#floor1:hover .cls-4,
			#floor1:hover .cls-5,
			#floor1:hover .cls-6,
			#floor1:hover .cls-7,
			#floor2:hover .cls-1,
			#floor2:hover .cls-2,
			#floor2:hover .cls-4,
			#floor2:hover .cls-5,
			#floor2:hover .cls-6,
			#floor2:hover .cls-7,
			#floor3:hover .cls-1,
			#floor3:hover .cls-2,
			#floor3:hover .cls-4,
			#floor3:hover .cls-5,
			#floor3:hover .cls-6,
			#floor3:hover .cls-7{
			fill: rgb(216, 223, 44);
			}
		</style>
	</defs>
	<title>stacking-plan-01</title>
	<metadata><?xpacket begin="﻿" id="W5M0MpCehiHzreSzNTczkc9d"?>
<x:xmpmeta xmlns:x="adobe:ns:meta/" x:xmptk="Adobe XMP Core 5.6-c143 79.161356, 2017/09/07-01:11:22        ">
   <rdf:RDF xmlns:rdf="http://www.w3.org/1999/02/22-rdf-syntax-ns#">
      <rdf:Description rdf:about=""
            xmlns:dc="http://purl.org/dc/elements/1.1/">
         <dc:title>
            <rdf:Alt>
               <rdf:li xml:lang="x-default">stacking-plan-01</rdf:li>
            </rdf:Alt>
         </dc:title>
      </rdf:Description>
   </rdf:RDF>
</x:xmpmeta>
                                                                                                    
                                                                                                    
                                                                                                    
                                                                                                    
                                                                                                    
                                                                                                    
                                                                                                    
                                                                                                    
                                                                                                    
                                                                                                    
                                                                                                    
                                                                                                    
                                                                                                    
                                                                                                    
                                                                                                    
                                                                                                    
                                                                                                    
                                                                                                    
                                                                                                    
                                                                                                    
                           
<?xpacket end="w"?></metadata>
<path id="background" class="cls-1" d="M421.85,25.84V6m0,0L314.52.5l-99.17,9L48.52,6.34.53,19h0L3.85,121.5l53.67.17,52,1.83h53.66l51.67,1.17,25.5,10.67,23.33,13.83L299,164l31.33,17.5,4.83.84,154.5-24.5L495.85,38.5h0l-74-12.66" transform="translate(-0.02 0)"/>
	<g id="roof">
		<polygon class="cls-2" points="333.85 47.17 215.68 21.68 4.16 18.55 48.56 6.84 215.32 10 314.54 1 416.66 6.24 358.67 14.56 358.66 15.54 404.69 23.41 491.45 38.26 338.58 47.42 333.85 47.17"/>
		<path class="cls-3" d="M314.54,1.5l97,5-6.82,1-13.58,2-20.36,2.92-12.14,1.74v2l12.17,2.08L391.1,21.6l13.53,2.31,17.05,2.92L487.11,38,338.59,46.9,334,46.68,215.81,21.19h-.2L7.83,18.11,48.64,7.34,215.33,10.5h.11l99.1-9m0-1-99.17,9L48.52,6.34.53,19,215.6,22.17l118.25,25.5,4.75.25L495.84,38.5l-74-12.66-17-2.92-13.53-2.31-20.33-3.48-12.17-2.08,12.14-1.74,20.36-2.92,13.58-2,17-2.44L314.52.5Z" transform="translate(-0.02 0)"/></g>
		<g id="side">
			<g id="side-front">
				<polygon class="cls-2" points="330.49 181.03 299.24 163.57 263.85 148.71 240.58 134.91 214.93 124.17 163.17 123 109.49 123 57.51 121.17 4.31 121.01 1.01 19.51 215.57 22.67 333.72 48.16 338.55 48.42 495.3 39.03 489.18 157.41 335.16 181.83 330.49 181.03"/>
				<path class="cls-3" d="M1.55,20l213.93,3.15,118.16,25.5h.15l4.75.25h.12l156.13-9.35L488.72,157,335.19,181.32l-4.51-.77L299.5,163.13h-.1l-35.27-14.8-23.27-13.8h-.13l-25.5-10.67-.17-.07h-.19l-51.69-1.17H109.55l-52-1.84-52.71-.16L1.55,20m-1-1h0l3.3,102.5,53.66.17,52,1.83h53.67l51.67,1.17,25.5,10.67,23.33,13.83L299,164l31.34,17.5,4.83.84,154.5-24.5L495.85,38.5h0L338.6,47.92l-4.75-.25L215.6,22.17.53,19Z" transform="translate(-0.02 0)"/>
			</g>
			<g id="side-back">
				<polygon class="cls-2" points="404.86 22.43 391.33 20.12 361.97 15.1 421.33 6.58 421.33 25.25 404.86 22.43"/>
				<path class="cls-3" d="M420.85,7.15V24.66L405,21.94l-13.52-2.31-20.33-3.48-5.9-1,5.84-.84,20.36-2.92,13.58-2,15.86-2.28m1-1.15-17,2.44-13.58,2L371,13.32l-12.14,1.74L371,17.14l20.33,3.48,13.53,2.31,17.05,2.92V6Z" transform="translate(-0.02 0)"/>
			</g>
		</g>
		<g id="floor1">
			<polygon class="cls-4" points="4.31 121 3.21 87.18 56.06 87.92 56.98 121.17 4.31 121"/>
			<path class="cls-3" d="M3.75,87.69l51.84.73.9,32.25L4.81,120.5,3.75,87.69m-1-1,1.1,34.81,53.67.17-1-34.24-53.8-.76Z" transform="translate(-0.02 0)"/>
			<polygon class="cls-5" points="57.98 121.19 57.06 87.94 108.48 88.66 108.99 122.98 57.98 121.19"/>
			<path class="cls-3" d="M57.6,88.45l50.41.71.49,33.3-50-1.76-.9-32.25m-1-1,1,34.24,52,1.83L109,88.17l-52.43-.74Z" transform="translate(-0.02 0)"/><polygon class="cls-4" points="109.99 123 109.48 88.67 162.6 88.67 162.66 123 109.99 123"/>
			<path class="cls-3" d="M162.12,89.17V122.5H110.5L110,89.17h52.11m1-1H109l.52,35.33h53.66l-.06-35.33Z" transform="translate(-0.02 0)"/>
			<polygon class="cls-5" points="163.66 123.01 163.6 88.68 214.57 91.02 214.33 124.16 163.66 123.01"/>
			<path class="cls-3" d="M164.12,89.21l50,2.29-.24,32.15-49.68-1.13V89.21m-.77-1h-.23l.06,35.33,51.67,1.17.25-34.13Z" transform="translate(-0.02 0)"/>
			<polygon class="cls-6" points="215.33 124.34 215.57 91.23 240.1 100.92 239.83 134.59 215.33 124.34"/>
			<path class="cls-3" d="M216.09,92l23.53,9.29-.26,32.58L215.85,124l.24-32m-1-1.43-.25,34.13,25.5,10.67.28-34.76-25.4-10Z" transform="translate(-0.02 0)"/>
			<polygon class="cls-7" points="240.83 135.06 241.1 101.33 263.97 110.86 263.17 148.3 240.83 135.06"/>
			<path class="cls-3" d="M241.61,102.08l3.69,1.53,18.18,7.58-.77,36.25-21.36-12.67.26-32.69m-1-1.5-.28,34.76,23.33,13.83.82-38.64-.27-.11-18.54-7.73-4.84-2-.22-.09Z" transform="translate(-0.02 0)"/>
			<polygon class="cls-6" points="264.16 148.84 264.96 111.27 299.27 125.24 298.51 163.25 264.16 148.84"/>
			<path class="cls-3" d="M265.47,112l33.31,13.56-.73,36.94-33.36-14,.78-36.5m-1-1.48-.82,38.64L299,164l.78-39.1-.57-.23L264.5,110.53Z" transform="translate(-0.02 0)"/>
			<polygon class="cls-7" points="299.5 163.71 300.26 125.64 330.85 137.92 330.96 137.92 329.85 180.66 299.5 163.71"/>
			<path class="cls-3" d="M300.77,126.37l29.7,11.93-1.08,41.52L300,163.42l.74-37m-1-1.47L299,164l31.33,17.5,1.15-44.08H331L299.8,124.9Z" transform="translate(-0.02 0)"/>
			<polygon class="cls-7" points="330.84 181.08 331.96 137.92 335.78 137.92 334.67 181.75 330.84 181.08"/>
			<path class="cls-3" d="M335.29,138.42l-1.08,42.74-2.84-.5,1.1-42.24h2.82m1-1h-4.82l-1.15,44.08,4.83.84,1.14-45Z" transform="translate(-0.02 0)"/>
			<polygon class="cls-7" points="336.79 137.84 388.95 131.78 387.24 173.57 335.67 181.75 336.79 137.84"/>
			<path class="cls-3" d="M388.45,132.34l-1.67,40.8-50.57,8,1.08-42.89,51.16-5.94m1.05-1.13-53.18,6.18-1.14,45L387.75,174l1.75-42.79Z" transform="translate(-0.02 0)"/>
			<polygon class="cls-2" points="389.96 131.66 441.27 125.45 439.42 165.3 388.25 173.41 389.96 131.66"/>
			<path class="cls-3" d="M440.76,126,439,164.87l-50.16,7.95,1.66-40.72L440.8,126m1.06-1.13h-.35l-51.62,6.25h-.35L387.75,174l52.17-8.27,1.9-40.85Z" transform="translate(-0.02 0)"/>
			<polygon class="cls-7" points="442.28 125.33 491.15 119.48 489.18 157.41 440.42 165.14 442.28 125.33"/>
			<path class="cls-3" d="M490.64,120.05l-1.92,37L441,164.55l1.81-38.78,47.86-5.72m1.06-1.14-49.88,6L440,165.76l49.76-7.89,2-38.93Z" transform="translate(-0.02 0)"/>
		</g>
		<g id="floor2">
			<polygon class="cls-4" points="3.18 86.18 2.1 53.2 55.13 54.35 56.03 86.92 3.18 86.18"/>
			<path class="cls-3" d="M2.64,53.71l52,1.13.88,31.58L3.68,85.68l-1-32m-1-1,1.11,34,53.85.76-.93-33.57-54-1.17Z" transform="translate(-0.02 0)"/><polygon class="cls-5" points="57.03 86.94 56.13 54.37 107.99 55.49 108.47 87.66 57.03 86.94"/>
			<path class="cls-3" d="M56.67,54.88,107.52,56,108,87.16l-50.44-.72-.87-31.56m-1-1,.93,33.57,52.43.74L108.51,55h-.16L55.64,53.86Z" transform="translate(-0.02 0)"/>
			<polygon class="cls-4" points="109.47 87.67 108.99 55.5 162.55 55.5 162.6 87.67 109.47 87.67"/>
			<path class="cls-3" d="M162.07,56l.05,31.17H110L109.52,56h52.55m.61-1H108.51L109,88.17h54.12L163.07,55Z" transform="translate(-0.02 0)"/>
			<polygon class="cls-6" points="215.58 90.16 215.82 57.45 240.4 64.99 240.11 99.85 215.58 90.16"/>
			<path class="cls-3" d="M216.34,58.12l23.58,7.24-.28,33.76-23.54-9.3.24-31.7m-1-1.35-.25,33.77h.13l25.4,10,.3-36-25.58-7.85Z" transform="translate(-0.02 0)"/>
			<polygon class="cls-7" points="241.11 100.25 241.4 65.3 264.79 72.47 263.99 109.79 241.11 100.25"/>
			<path class="cls-3" d="M241.92,66l2.16.67,20.22,6.2-.77,36.21-17.46-7.28L241.63,100,241.92,66m-1-1.35-.3,36,.22.09,4.84,2,18.54,7.73.27.11.82-38.43-20.94-6.42-3.45-1.06Z" transform="translate(-0.02 0)"/>
			<polygon class="cls-6" points="264.98 110.2 265.78 72.77 300.11 83.31 299.29 124.17 264.98 110.2"/>
			<path class="cls-3" d="M266.29,73.45l33.33,10.23-.79,39.75-33.32-13.57.78-36.41m-1-1.35-.82,38.43,34.73,14.14.57.23.84-42L265.32,72.1Z" transform="translate(-0.02 0)"/>
			<polygon class="cls-7" points="300.28 124.57 301.1 83.61 332.13 93.14 330.99 136.9 300.28 124.57"/>
			<path class="cls-3" d="M301.61,84.29l30,9.21-1.11,42.67-29.72-11.94.8-39.94m-1-1.35-.84,42L331,137.42h.53l1.17-44.75h-.32l-31.71-9.73Z" transform="translate(-0.02 0)"/>
			<polygon class="cls-7" points="331.99 136.92 333.13 93.17 336.92 93.17 335.81 136.92 331.99 136.92"/>
			<path class="cls-3" d="M336.43,93.67l-1.09,42.75h-2.82l1.12-42.75h2.79m1-1h-4.79l-1.17,44.75h4.82l1.14-44.73Z" transform="translate(-0.02 0)"/><polygon class="cls-7" points="337.92 93.12 390.72 88.56 388.99 130.76 336.81 136.83 337.92 93.12"/>
			<path class="cls-3" d="M390.22,89.11l-1.69,41.21-51.18,5.94,1.08-42.68,51.79-4.47m1-1.1-53.81,4.65-1.14,44.73,53.18-6.18L391.27,88Z" transform="translate(-0.02 0)"/>
			<polygon class="cls-7" points="444.21 83.71 493.21 79.57 491.2 118.47 442.32 124.31 444.21 83.71"/>
			<path class="cls-3" d="M492.7,80.11l-2,37.91-47.87,5.73,1.83-39.58,48-4.06m1.1-1.11-50,4.23-1.93,41.63,49.88-6Z" transform="translate(-0.02 0)"/>
			<polygon class="cls-5" points="163.6 87.68 163.55 55.53 214.82 57.17 214.58 90.02 163.6 87.68"/>
			<path class="cls-3" d="M164.07,56l50.27,1.61-.24,31.84-50-2.28,0-31.17m-1-1,.05,33.16h.23l51.75,2.37.25-33.77-.33-.1L163,55Z" transform="translate(-0.02 0)"/>
			<polygon class="cls-2" points="391.73 88.47 442.7 83.84 443.2 83.8 441.32 124.43 390 130.65 391.73 88.47"/>
			<path class="cls-3" d="M442.69,84.34,440.86,124l-50.32,6.09,1.69-41.15,50.46-4.59m1.06-1.09-1.07.09L391.35,88h-.08l-1.77,43.2h.35L441.47,125h.35l1.93-41.63Z" transform="translate(-0.02 0)"/>
		</g>
		<g id="floor3">
			<polygon class="cls-4" points="2.07 52.2 1.01 19.51 54.19 20.29 55.1 53.35 2.07 52.2"/><path class="cls-3" d="M1.55,20l52.17.77.89,32.05-52-1.13L1.55,20m-1-1h0L1.61,52.69l54,1.17L54.7,19.8.53,19Z" transform="translate(-0.02 0)"/><polygon class="cls-5" points="56.1 53.37 55.19 20.31 107.49 21.07 107.98 54.49 56.1 53.37"/><path class="cls-3" d="M55.72,20.82l51.3.75L107.49,54,56.61,52.9l-.89-32.06m-1-1,.94,34.06L108.35,55h.16L108,20.58,54.7,19.8Z" transform="translate(-0.02 0)"/><polygon class="cls-4" points="108.98 54.5 108.49 21.09 162.49 21.88 162.54 54.5 108.98 54.5"/><path class="cls-3" d="M109,21.6l53,.78L162.06,54H109.49L109,21.6m-1-1L108.5,55h54.56L163,21.39l-55-.81Z" transform="translate(-0.02 0)"/><polygon class="cls-5" points="163.54 54.53 163.49 21.9 215.07 22.66 214.83 56.17 163.54 54.53"/><path class="cls-3" d="M164,22.41l50.58.75-.24,32.49L164.06,54,164,22.41m-1-1L163.07,55l52,1.66.33.1.25-34.6L163,21.39Z" transform="translate(-0.02 0)"/><polygon class="cls-6" points="215.83 56.4 216.07 22.79 240.7 28.1 240.41 63.95 215.83 56.4"/><path class="cls-3" d="M216.59,23.41l23.63,5.1-.28,34.76L216.35,56l.24-32.62m-1-1.24-.25,34.6,25.58,7.85.3-36.92-25.62-5.5Z" transform="translate(-0.02 0)"/><polygon class="cls-7" points="241.41 64.25 241.7 28.32 265.62 33.47 264.81 71.43 241.41 64.25"/><path class="cls-3" d="M242.22,28.94l22.91,4.93-.79,36.89-19.67-6-2.74-.85L242.22,29m-1-1.24-.3,36.92,3.45,1.06,20.94,6.42.83-39L241.23,27.7Z" transform="translate(-0.02 0)"/><polygon class="cls-6" points="265.8 71.73 266.61 33.69 300.96 41.09 300.13 82.27 265.8 71.73"/><path class="cls-3" d="M267.12,34.3l33.35,7.19-.81,40.11L266.33,71.37l.79-37.07m-1-1.23-.83,39,35.32,10.84.85-42.25L266.12,33Z" transform="translate(-0.02 0)"/><polygon class="cls-7" points="301.12 82.57 301.95 41.31 333.32 48.07 332.16 92.1 301.12 82.57"/><path class="cls-3" d="M302.46,41.92l30.37,6.55-1.13,43-30.05-9.22L302.46,42m-1-1.23L300.61,83l31.71,9.73h.32l1.18-45-32.36-7Z" transform="translate(-0.02 0)"/><polygon class="cls-7" points="333.16 92.17 334.31 48.2 338.06 48.4 336.95 92.17 333.16 92.17"/><path class="cls-3" d="M334.82,48.72l2.75.15-1.09,42.8h-2.79l1.13-42.95m-1-1-1.18,45h4.79L338.57,48l-4.75-.25Z" transform="translate(-0.02 0)"/><polygon class="cls-7" points="339.06 48.39 392.49 45.19 390.77 87.55 337.95 92.11 339.06 48.39"/><path class="cls-3" d="M392,45.73l-1.7,41.36-51.82,4.48,1.09-42.71L392,45.73m1-1.07-54.4,3.26-1.14,44.74L391.27,88Z" transform="translate(-0.02 0)"/><polygon class="cls-2" points="393.5 45.13 445.14 42.03 443.25 82.79 442.61 82.84 391.77 87.46 393.5 45.13"/><path class="cls-3" d="M444.64,42.57l-1.85,39.76h-.2l-50.28,4.56L394,45.61l50.64-3m1.05-1.07L393,44.66,391.27,88h.08l51.33-4.66,1.07-.09,1.94-41.75Z" transform="translate(-0.02 0)"/><polygon class="cls-7" points="446.15 41.97 495.3 39.03 493.26 78.56 444.25 82.7 446.15 41.97"/><path class="cls-3" d="M494.79,39.57l-2,38.53-48,4.06,1.84-39.71,48.15-2.88m1.06-1.07h0l-50.15,3-1.94,41.75,50-4.23Z" transform="translate(-0.02 0)"/><polygon class="cls-5" points="361.97 15.1 370.39 13.89 370.41 16.54 361.97 15.1"/><path class="cls-3" d="M369.92,14.46v1.48l-4.72-.8,4.71-.68m1-1.15-12.14,1.74,12.17,2.08V13.31Z" transform="translate(-0.02 0)"/><polygon class="cls-6" points="371.41 16.71 371.39 13.74 390.75 10.97 390.75 20.02 371.41 16.71"/><path class="cls-3" d="M390.27,11.54v7.89l-18.34-3.14V14.18l18.36-2.64m1-1.15-20.36,2.92v3.82l20.33,3.48V10.39Z" transform="translate(-0.02 0)"/><polygon class="cls-6" points="405.28 22.5 405.33 8.88 421.33 6.58 421.33 25.25 405.28 22.5"/><path class="cls-3" d="M420.85,7.15V24.66L405.8,22.08V9.31l15-2.16m1-1.15-17,2.44-.05,14.48,17.05,2.92Z" transform="translate(-0.02 0)"/><polygon class="cls-5" points="391.75 20.19 391.75 10.82 404.33 9.02 404.28 22.33 391.75 20.19"/><path class="cls-3" d="M403.84,9.6V21.74l-11.53-2V11.26L403.84,9.6m1-1.16-13.58,2V20.61l13.53,2.31Z" transform="translate(-0.02 0)"/></g></svg>