<?xml version="1.0" encoding="utf-8"?>
<!-- Generator: Adobe Illustrator 20.1.0, SVG Export Plug-In . SVG Version: 6.00 Build 0)  -->
<svg version="1.1" xmlns="http://www.w3.org/2000/svg" xmlns:xlink="http://www.w3.org/1999/xlink" x="0px" y="0px"
	 viewBox="0 0 1000 562" style="enable-background:new 0 0 1000 562;" xml:space="preserve">
<style type="text/css">
	.st0{fill:url(#SVGID_1_);}
	.st1{fill:#1D9491;}
	.st2{fill:#FFFFFF;}
	.st3{fill:url(#SVGID_2_);}
	.st4{fill:url(#SVGID_3_);}
	.st5{fill:url(#SVGID_4_);}
</style>
  <g id="Layer_1" data-name="Layer 1">
    <image id="mapbb" width="2000" height="1124" transform="scale(0.5)" xlink:href="buildings.jpg"/>
  </g>
<a xlink:href="http://bannockburn.torquelaunchdev.com/building/building-1" target="_top"><g id="building1">
	<linearGradient id="SVGID_1_" gradientUnits="userSpaceOnUse" x1="301.1924" y1="14.1722" x2="298.1924" y2="58.1722">
		<stop  offset="0.4081" style="stop-color:#1D9491"/>
		<stop  offset="0.5822" style="stop-color:#248B92"/>
		<stop  offset="0.8631" style="stop-color:#397396"/>
		<stop  offset="0.8779" style="stop-color:#3A7296"/>
	</linearGradient>
	<path class="st0" d="M373.4,32.6C373.4,32.6,373.4,32.6,373.4,32.6C373.4,32.6,373.4,32.6,373.4,32.6c0-0.1,0-0.1-0.1-0.2
		c0,0,0,0,0,0c0,0-0.1,0-0.1-0.1c0,0,0,0,0,0l-30.3-3.1c0,0,0.1-0.1,0.1-0.2V19c0,0,0-0.1,0-0.1c0,0,0,0,0,0c0,0,0,0,0,0
		c0,0,0-0.1-0.1-0.1c0,0,0,0,0,0c0,0-0.1,0-0.1,0c0,0,0,0,0,0L301,17.5c-0.1,0-0.1,0-0.2,0.1l-11.4,9.9l-63.7,3.2c0,0,0,0,0,0
		c0,0-0.1,0-0.1,0c0,0,0,0,0,0c0,0-0.1,0.1-0.1,0.1c0,0,0,0,0,0c0,0,0,0,0,0c0,0,0,0,0,0v21c0,0.1,0,0.2,0.1,0.2l13,8.2c0,0,0,0,0,0
		c0,0,0.1,0,0.1,0h0h0c0,0,0,0,0,0l65.2-3.7l48.1,6.5c0,0,0,0,0,0l0,0l0,0c0,0,0,0,0,0c0,0,0.1,0,0.1,0c0,0,0,0,0,0l20.7-9.4
		c0.1,0,0.1-0.1,0.1-0.2L373.4,32.6C373.4,32.6,373.4,32.6,373.4,32.6z"/>
	<polygon class="st1" points="289.2,27.5 300.8,17.5 342.5,18.8 332.8,28.2 372.9,32.4 351.9,41.5 303.8,35 238.5,38.8 225.5,30.8 	
		"/>
</g></a>
<g id="cage1">
	<path class="st2" d="M373.4,32.6C373.4,32.6,373.4,32.6,373.4,32.6C373.4,32.6,373.4,32.6,373.4,32.6c0-0.1,0-0.1-0.1-0.2
		c0,0,0,0,0,0c0,0-0.1,0-0.1-0.1c0,0,0,0,0,0l-30.3-3.1c0,0,0.1-0.1,0.1-0.2V19c0,0,0-0.1,0-0.1c0,0,0,0,0,0c0,0,0,0,0,0
		c0,0,0-0.1-0.1-0.1c0,0,0,0,0,0c0,0-0.1,0-0.1,0c0,0,0,0,0,0L301,17.5c-0.1,0-0.1,0-0.2,0.1l-11.4,9.9l-63.7,3.2c0,0,0,0,0,0
		c0,0-0.1,0-0.1,0c0,0,0,0,0,0c0,0-0.1,0.1-0.1,0.1c0,0,0,0,0,0c0,0,0,0,0,0c0,0,0,0,0,0v21c0,0.1,0,0.2,0.1,0.2l13,8.2c0,0,0,0,0,0
		c0,0,0.1,0,0.1,0h0h0h0c0,0,0,0,0,0l65.2-3.7l48.1,6.5c0,0,0,0,0,0l0,0l0,0c0,0,0,0,0,0c0,0,0.1,0,0.1,0c0,0,0,0,0,0l20.7-9.4
		c0.1,0,0.1-0.1,0.1-0.2L373.4,32.6C373.4,32.6,373.4,32.6,373.4,32.6z M342.5,29.2l-9-0.9l8.9-8.7v9.5
		C342.5,29.1,342.5,29.2,342.5,29.2z M289.5,28c0.1,0,0.1,0,0.2-0.1l11.4-9.9l41.1,1.2l-9.3,9.1c-0.1,0.1-0.1,0.2-0.1,0.3
		c0,0.1,0.1,0.2,0.2,0.2l39.2,4l-20.1,8.7L304,35c0,0,0,0,0,0c0,0,0,0,0,0l0,0l-65.2,3.7l-12.2-7.5L289.5,28z M239,39.2l64.7-3.7
		v20.8L239,60V39.2z M226,51.9V31.4l12.5,7.7v20.7L226,51.9z M304.2,56.3V35.5l47.6,6.4v20.7L304.2,56.3z M372.6,53.4l-20.2,9.2
		V41.9l20.5-8.9L372.6,53.4z"/>
</g>
<a xlink:href="http://bannockburn.torquelaunchdev.com/building/building-2" target="_top"><g id="building2">
	<linearGradient id="SVGID_2_" gradientUnits="userSpaceOnUse" x1="445.1821" y1="52.3047" x2="447.1821" y2="123.3047">
		<stop  offset="0.4726" style="stop-color:#1D9491"/>
		<stop  offset="0.6113" style="stop-color:#248B92"/>
		<stop  offset="0.8349" style="stop-color:#397396"/>
		<stop  offset="0.8468" style="stop-color:#3A7296"/>
	</linearGradient>
	<path class="st3" d="M540.5,82.3C540.5,82.3,540.5,82.2,540.5,82.3c0-0.2-0.1-0.3-0.2-0.3c-7.9-0.8-35.1-3.4-51.7-5.1l-0.2,0
		c-1.8-0.2-3.4-0.3-4.9-0.5l-7.3-0.8c-0.5-0.1-0.9-0.1-1.1-0.1c-0.1,0-0.2,0-0.2,0c-0.2-0.1-1.2-1.6-5.3-14.7c0-0.1-0.1-0.2-0.2-0.2
		h0l-3.2,0c-10.8,0-46.3,0.2-50.3,0c-0.1,0-0.1,0-0.2,0.1s-0.1,0.1-0.1,0.2l0,0.4l0,16.2l-63.2,9c-0.1,0-0.2,0.1-0.2,0.2
		c0,0,0,0,0,0.1c0,0,0,0,0,0v26c0,0.1,0.1,0.2,0.1,0.2l27.6,13c0,0,0.1,0,0.1,0l0,0h0h0l0,0c0,0,0,0,0,0l68.2-11.5l71.2,7.7
		c0,0,0,0,0,0c0,0,0.1,0,0.1,0l20.5-14c0.1,0,0.1-0.1,0.1-0.2L540.5,82.3C540.5,82.3,540.5,82.3,540.5,82.3z"/>
	<path class="st1" d="M466.6,61.1c1.4,0,2.4,0,3,0c0.1,0,0.1,0,0.2,0c1.7,5.5,4.6,14.5,5.4,14.7c0,0,0.1,0,0.2,0
		c0.2,0,0.6,0.1,1.1,0.1c0.1,0,0.3,0,0.5,0.1c0.2,0,0.5,0.1,0.8,0.1c0.2,0,0.3,0,0.5,0.1c0.6,0.1,1.3,0.1,2.1,0.2
		c0.3,0,0.7,0.1,1,0.1c0.5,0.1,1.1,0.1,1.7,0.2c0.2,0,0.4,0,0.6,0.1c1.5,0.1,3.1,0.3,4.8,0.5c0.1,0,0.2,0,0.2,0
		c17.1,1.7,44.9,4.4,51.3,5l-0.3,0.2l0,0l-20,13.1L449,87.8l0,0l-68.2,11.5l-26.4-12.4h0l-0.4-0.2l62.5-8.9l0,0l0,0l0.2,0l0-0.1
		l1.5-0.2l0.2,0l-1.7-16.2l0,0l0-0.3C420.7,61.3,455.4,61.1,466.6,61.1z"/>
</g></a>
<g id="cage2">
	<path class="st2" d="M540.5,82.3C540.5,82.3,540.5,82.2,540.5,82.3c0-0.2-0.1-0.3-0.2-0.3c-7.9-0.8-35.1-3.4-51.7-5.1l-0.2,0
		c-1.8-0.2-3.4-0.3-4.9-0.5l-7.3-0.8c-0.5-0.1-0.9-0.1-1.1-0.1c-0.1,0-0.2,0-0.2,0c-0.2-0.1-1.2-1.6-5.3-14.7c0-0.1-0.1-0.2-0.2-0.2
		h0l-3.2,0c-10.8,0-46.3,0.2-50.3,0c-0.1,0-0.1,0-0.2,0.1s-0.1,0.1-0.1,0.2l0,0.4l0,16.2l-63.2,9c-0.1,0-0.2,0.1-0.2,0.2
		c0,0,0,0,0,0.1c0,0,0,0,0,0v26c0,0.1,0.1,0.2,0.1,0.2l27.6,13c0,0,0.1,0,0.1,0l0,0h0h0l0,0c0,0,0,0,0,0l68.2-11.5l71.2,7.7
		c0,0,0,0,0,0c0,0,0.1,0,0.1,0l20.5-14c0.1,0,0.1-0.1,0.1-0.2L540.5,82.3C540.5,82.3,540.5,82.3,540.5,82.3z M416.3,66.2l1.2,11.1
		l-1.2,0.2L416.3,66.2z M417.8,77.8c0.1,0,0.2-0.1,0.2-0.3l-1.7-16.2l0-0.1c5.2,0.2,39.4,0,50,0l3,0c4.5,14.5,5.2,14.8,5.5,14.8
		c0,0,0.1,0,0.3,0c0.2,0,0.6,0.1,1.1,0.1l7.3,0.8c1.5,0.2,3.1,0.3,4.9,0.5l0.2,0c16.2,1.6,42.3,4.1,51,5l-19.8,13l-71.2-7.8
		c0,0,0,0,0,0c0,0,0,0,0,0h0c0,0,0,0,0,0c0,0,0,0,0,0l-68.7,11.6l-26.2-12.3L417.8,77.8z M352.9,112.7V87.2l26.5,12.5l0.6,25.8
		L352.9,112.7z M380.5,125.5l-0.6-25.8l68.3-11.5l0.1,25.9L380.5,125.5z M448.8,114.1l-0.1-25.9l70.8,7.8v25.9L448.8,114.1z
		 M520,121.6V95.8l20-13.1v25.2L520,121.6z"/>
</g>
<a xlink:href="building-three/" target="_top"><g id="building3">
	<linearGradient id="SVGID_3_" gradientUnits="userSpaceOnUse" x1="799.4138" y1="133.5591" x2="754.7471" y2="314.8925">
		<stop  offset="3.692475e-04" style="stop-color:#1D9491"/>
		<stop  offset="0.2754" style="stop-color:#209191"/>
		<stop  offset="0.5083" style="stop-color:#298693"/>
		<stop  offset="0.7253" style="stop-color:#387596"/>
		<stop  offset="0.7526" style="stop-color:#3A7296"/>
	</linearGradient>
	<path class="st4" d="M917.3,218.5c0,0,0-0.1,0-0.1l-16.3-32.3c0-0.1-0.1-0.1-0.2-0.1l-127.6-5l-55.9-30.6c0,0-0.1,0-0.2,0
		l-71.3,9.7c0,0-0.1,0-0.1,0c0,0,0,0,0,0c0,0-0.1,0.1-0.1,0.1c0,0,0,0,0,0c0,0,0,0,0,0l-3.3,32.7c0,0.1,0,0.2,0.1,0.2l20.1,15.5
		l-35.1,16.7c0,0,0,0,0,0c0,0,0,0,0,0c0,0,0,0.1-0.1,0.1c0,0,0,0,0,0l-4.9,41.2c0,0.1,0.1,0.2,0.2,0.3l86.1,28.1c0,0,0,0,0,0
		c0,0,0,0,0,0c0,0,0,0,0,0c0,0,0.1,0,0.1,0l68-41.1l139.8,10.5c0.1,0,0.1,0,0.2-0.1c0.1,0,0.1-0.1,0.1-0.2L917.3,218.5
		C917.3,218.5,917.3,218.5,917.3,218.5z"/>
	<polygon class="st1" points="645.7,159.9 717,150.3 773,180.9 900.7,185.9 917,218.3 779,211.3 712.7,248.6 627.4,225.3 
		695.4,192.9 	"/>
</g></a>
<g id="cage3">
	<path class="st2" d="M917.3,218.3c0,0,0-0.1,0-0.1l-16.3-32.3c0-0.1-0.1-0.1-0.2-0.1l-127.6-5L717.2,150c0,0-0.1,0-0.2,0l-71.3,9.7
		c0,0-0.1,0-0.1,0c0,0,0,0,0,0c0,0-0.1,0.1-0.1,0.1c0,0,0,0,0,0c0,0,0,0,0,0l-3.3,32.7c0,0.1,0,0.2,0.1,0.2l20.1,15.5L627.3,225
		c0,0,0,0,0,0c0,0,0,0,0,0c0,0,0,0.1-0.1,0.1c0,0,0,0,0,0l-4.9,41.2c0,0.1,0.1,0.2,0.2,0.3l86.1,28.1c0,0,0,0,0,0c0,0,0,0,0,0
		c0,0,0,0,0,0c0,0,0.1,0,0.1,0l68-41.1L916.6,264c0.1,0,0.1,0,0.2-0.1c0.1,0,0.1-0.1,0.1-0.2L917.3,218.3
		C917.3,218.3,917.3,218.3,917.3,218.3z M642.7,192.5l3.2-32.1l49,32.5l-31.9,15.2L642.7,192.5z M695.5,193.2c0.1,0,0.1-0.1,0.1-0.2
		c0-0.1,0-0.2-0.1-0.2l-49.1-32.6l70.6-9.6l55.9,30.6c0,0,0.1,0,0.1,0l127.5,5l16.1,31.8L779,211c0,0,0,0,0,0l0,0l0,0
		c-0.1,0-0.1,0-0.1,0l-66.2,37.3l-84.5-23.1L695.5,193.2z M776.5,253.2L708.9,294l4-45.3l65.8-37L776.5,253.2z M627.6,225.6
		l84.8,23.2l-4,45.4l-85.6-27.9L627.6,225.6z M916.4,263.5L777,253.1l2.3-41.6l137.5,7L916.4,263.5z"/>
</g>
<a xlink:href="http://bannockburn.torquelaunchdev.com/building/building-4" target="_top"><g id="building4">
	<linearGradient id="SVGID_4_" gradientUnits="userSpaceOnUse" x1="296.5175" y1="298.2382" x2="341.5175" y2="505.2382">
		<stop  offset="0.4796" style="stop-color:#1D9491"/>
		<stop  offset="0.6272" style="stop-color:#248B92"/>
		<stop  offset="0.8651" style="stop-color:#397396"/>
		<stop  offset="0.8777" style="stop-color:#3A7296"/>
	</linearGradient>
	<path class="st5" d="M549.9,374C549.9,374,549.9,373.9,549.9,374c0-0.1,0-0.1-0.1-0.1c0,0,0,0,0,0c0,0-0.1-0.1-0.1-0.1l-142.7-33.2
		l0.8-14.9l-2.4-53.3c0-0.1-0.1-0.3-0.3-0.2c0,0,0,0,0,0c-36.8,1.5-106.7,4.4-108.4,4c-0.1,0-0.1,0-0.2,0c-0.1,0-0.1,0.1-0.1,0.1
		l-21.5,70.4l-188.4,57c0,0,0,0,0,0c0,0-0.1,0-0.1,0.1c0,0,0,0,0,0c0,0,0,0,0,0.1c0,0,0,0,0,0.1l7.8,53.2c0,0,0,0.1,0,0.1l37.9,71
		c0,0,0,0,0,0c0,0,0,0,0,0c0,0,0.1,0.1,0.1,0.1c0,0,0,0,0,0h0h0l0,0c0,0,0,0,0,0c0,0,0,0,0,0c0,0,0,0,0,0L331.9,456l160.7,43.5
		c0,0,0,0,0,0c0,0,0,0,0,0c0,0,0,0,0,0c0,0,0,0,0,0c0,0,0.1,0,0.1-0.1c0,0,0,0,0,0c0,0,0,0,0,0l57-72c0,0,0.1-0.1,0.1-0.2L549.9,374
		C549.9,374,549.9,374,549.9,374z"/>
	<path class="st1" d="M296.6,276.2c1.5,0.5,108.5-4,108.5-4l-4,67l148.5,34.5l-58,72l-163.5-43.5l-203,72.5l-38.5-71l188.5-57
		L296.6,276.2z"/>
</g></a>
<g id="cage4">
	<path class="st2" d="M549.9,373.7C549.9,373.7,549.9,373.7,549.9,373.7c0-0.1,0-0.1-0.1-0.1c0,0,0,0,0,0c0,0-0.1-0.1-0.1-0.1
		l-142.7-33.2l0.8-14.9l-2.4-53.3c0-0.1-0.1-0.3-0.3-0.2c0,0,0,0,0,0c-36.8,1.5-106.7,4.4-108.4,4c-0.1,0-0.1,0-0.2,0
		c-0.1,0-0.1,0.1-0.1,0.1l-21.5,70.4l-188.4,57c0,0,0,0,0,0c0,0-0.1,0-0.1,0.1c0,0,0,0,0,0c0,0,0,0,0,0.1c0,0,0,0,0,0.1l7.8,53.2
		c0,0,0,0.1,0,0.1l37.9,71c0,0,0,0,0,0c0,0,0,0,0,0c0,0,0.1,0.1,0.1,0.1c0,0,0,0,0,0h0h0l0,0c0,0,0,0,0,0c0,0,0,0,0,0c0,0,0,0,0,0
		l199.5-72.5l160.7,43.5c0,0,0,0,0,0c0,0,0,0,0,0c0,0,0,0,0,0c0,0,0,0,0,0c0,0,0.1,0,0.1-0.1c0,0,0,0,0,0c0,0,0,0,0,0l57-72
		c0,0,0.1-0.1,0.1-0.2L549.9,373.7C549.9,373.7,549.9,373.7,549.9,373.7z M407.3,325.5l-0.8,14.7l-5.1-1.2l3.7-62L407.3,325.5z
		 M275.2,347c0.1,0,0.1-0.1,0.2-0.2l21.4-70.3c5.7,0.3,96.1-3.5,108.1-4l-4,66.7c0,0.1,0.1,0.2,0.2,0.3l148.1,34.4l-57.6,71.6
		L328.2,402c0,0,0,0-0.1,0c0,0,0,0,0,0c0,0,0,0,0,0c0,0,0,0,0,0l-202.8,72.4L87,403.9L275.2,347z M125.4,474.9l202.5-72.3l3.7,52.7
		l-199.1,72.3L125.4,474.9z M328.4,402.6l163,43.4l1,52.7l-160.2-43.4L328.4,402.6z M87.1,405.1l37.8,69.7l7,51.8l-37.2-69.7
		L87.1,405.1z M492.8,498.3l-1-52.5l57.5-71.4v52.5L492.8,498.3z"/>
</g>
</svg>
