<svg xmlns="http://www.w3.org/2000/svg" xmlns:xlink="http://www.w3.org/1999/xlink" viewBox="0 0 700 393.4">
  <defs>
    <style>
      .cls-1 {
        fill: url(#linear-gradient);
      }

      .cls-2 {
        fill: #1d9491;
      }

      .cls-3 {
        fill: #fff;
      }

      .cls-4 {
        fill: url(#linear-gradient-2);
      }

      .cls-5 {
        fill: url(#linear-gradient-3);
      }

      .cls-6 {
        fill: url(#linear-gradient-4);
      }
    </style>
    <linearGradient id="linear-gradient" x1="209.45" y1="12.25" x2="209.45" y2="43.93" gradientUnits="userSpaceOnUse">
      <stop offset="0.41" stop-color="#1d9491"/>
      <stop offset="0.58" stop-color="#248b92"/>
      <stop offset="0.86" stop-color="#397396"/>
      <stop offset="0.88" stop-color="#3a7296"/>
    </linearGradient>
    <linearGradient id="linear-gradient-2" x1="311.61" y1="42.5" x2="311.61" y2="87.83" gradientUnits="userSpaceOnUse">
      <stop offset="0.33" stop-color="#1d9491"/>
      <stop offset="0.52" stop-color="#248b92"/>
      <stop offset="0.83" stop-color="#397396"/>
      <stop offset="0.85" stop-color="#3a7296"/>
    </linearGradient>
    <linearGradient id="linear-gradient-3" x1="556.05" y1="92.49" x2="535.75" y2="207.29" gradientUnits="userSpaceOnUse">
      <stop offset="0" stop-color="#1d9491"/>
      <stop offset="0.28" stop-color="#209191"/>
      <stop offset="0.51" stop-color="#298693"/>
      <stop offset="0.73" stop-color="#387596"/>
      <stop offset="0.75" stop-color="#3a7296"/>
    </linearGradient>
    <linearGradient id="linear-gradient-4" x1="212.08" y1="207.29" x2="234.48" y2="340.99" gradientUnits="userSpaceOnUse">
      <stop offset="0.55" stop-color="#1d9491"/>
      <stop offset="0.71" stop-color="#248b92"/>
      <stop offset="0.96" stop-color="#397396"/>
      <stop offset="0.97" stop-color="#3a7296"/>
    </linearGradient>
  </defs>
  <title>newmap</title>
  <g id="Layer_1" data-name="Layer 1">
    <image id="mapbb" width="2000" height="1124" transform="scale(0.35)" xlink:href="mapb.jpg"/>
  </g>
  <g id="building1">
    <polygon class="cls-1" points="260.78 22.77 261.06 22.65 239.63 20.46 239.75 20.34 239.6 20.34 239.75 20.19 239.6 20.19 239.75 20.05 239.6 20.04 239.75 19.9 239.6 19.89 239.75 19.75 239.6 19.75 239.75 19.61 239.6 19.6 239.75 19.46 239.6 19.45 239.75 19.31 239.6 19.31 239.75 19.16 239.6 19.16 239.75 19.02 239.6 19.01 239.75 18.87 239.6 18.86 239.75 18.72 239.6 18.72 239.75 18.57 239.6 18.57 239.75 18.43 239.6 18.42 239.75 18.28 239.6 18.27 239.75 18.13 239.6 18.13 239.75 17.98 239.6 17.98 239.75 17.84 239.6 17.83 239.75 17.69 239.6 17.69 239.75 17.54 239.6 17.54 239.75 17.4 239.6 17.39 239.75 17.25 239.6 17.24 239.75 17.1 239.6 17.1 239.75 16.95 239.6 16.95 239.75 16.81 239.6 16.8 239.75 16.66 239.6 16.66 239.75 16.51 239.6 16.51 239.75 16.36 239.6 16.36 239.75 16.22 239.6 16.21 239.75 16.07 239.6 16.07 239.75 15.92 239.6 15.92 239.75 15.78 239.6 15.77 239.75 15.63 239.6 15.62 239.75 15.48 239.6 15.48 239.75 15.33 239.6 15.33 239.75 15.19 239.6 15.18 239.75 15.04 239.6 15.04 239.75 14.89 239.6 14.89 239.75 14.74 239.6 14.74 239.75 14.6 239.6 14.59 239.75 14.45 239.6 14.45 239.75 14.3 239.6 14.3 239.75 14.16 239.6 14.15 239.75 14.01 239.6 14 239.75 13.86 239.6 13.86 239.75 13.71 239.6 13.71 239.75 13.57 239.6 13.56 239.75 13.42 239.6 13.41 239.75 13.27 239.6 13.27 239.75 13.13 210.53 12.25 202.47 19.25 157.85 21.52 158.07 21.66 157.85 21.67 158.07 21.81 157.85 21.82 158.07 21.96 157.85 21.97 158.07 22.1 157.85 22.11 158.07 22.25 157.85 22.26 158.07 22.4 157.85 22.41 158.07 22.55 157.85 22.56 158.07 22.69 157.85 22.7 158.07 22.84 157.85 22.85 158.07 22.99 157.85 23 158.07 23.13 157.85 23.14 158.07 23.28 157.85 23.29 158.07 23.43 157.85 23.44 158.07 23.58 157.85 23.59 158.07 23.72 157.85 23.73 158.07 23.87 157.85 23.88 158.07 24.02 157.85 24.03 158.07 24.16 157.85 24.18 158.07 24.31 157.85 24.32 158.07 24.46 157.85 24.47 158.07 24.61 157.85 24.62 158.07 24.75 157.85 24.77 158.07 24.9 157.85 24.91 158.07 25.05 157.85 25.06 158.07 25.2 157.85 25.21 158.07 25.34 157.85 25.35 158.07 25.49 157.85 25.5 158.07 25.64 157.85 25.65 158.07 25.79 157.85 25.8 158.07 25.93 157.85 25.94 158.07 26.08 157.85 26.09 158.07 26.23 157.85 26.24 158.07 26.37 157.85 26.39 158.07 26.52 157.85 26.53 158.07 26.67 157.85 26.68 158.07 26.82 157.85 26.83 158.07 26.96 157.85 26.97 158.07 27.11 157.85 27.12 158.07 27.26 157.85 27.27 158.07 27.41 157.85 27.42 158.07 27.55 157.85 27.56 158.07 27.7 157.85 27.71 158.07 27.85 157.85 27.86 158.07 27.99 157.85 28 158.07 28.14 157.85 28.15 158.07 28.29 157.85 28.3 158.07 28.44 157.85 28.45 158.07 28.58 157.85 28.59 158.07 28.73 157.85 28.74 158.07 28.88 157.85 28.89 158.07 29.02 157.85 29.04 158.07 29.17 157.85 29.18 158.07 29.32 157.85 29.33 158.07 29.47 157.85 29.48 158.07 29.61 157.85 29.63 158.07 29.76 157.85 29.77 158.07 29.91 157.85 29.92 158.07 30.06 157.85 30.07 158.07 30.2 157.85 30.21 158.07 30.35 157.85 30.36 158.07 30.5 157.85 30.51 158.07 30.64 157.85 30.66 158.07 30.79 157.85 30.8 158.07 30.94 157.85 30.95 158.07 31.09 157.85 31.1 158.07 31.23 157.85 31.25 158.07 31.38 157.85 31.39 158.07 31.53 157.85 31.54 158.07 31.68 157.85 31.69 158.07 31.82 157.85 31.83 158.07 31.97 157.85 31.98 158.07 32.12 157.85 32.13 158.07 32.27 157.85 32.28 158.07 32.41 157.85 32.42 158.07 32.56 157.85 32.57 158.07 32.71 157.85 32.72 158.07 32.85 157.85 32.87 158.07 33 157.85 33.01 158.07 33.15 157.85 33.16 158.07 33.3 157.85 33.31 158.07 33.44 157.85 33.45 158.07 33.59 157.85 33.6 158.07 33.74 157.85 33.75 158.07 33.88 157.85 33.9 158.07 34.03 157.85 34.04 158.07 34.18 157.85 34.19 158.07 34.33 157.85 34.34 158.07 34.47 157.85 34.48 158.07 34.62 157.85 34.63 158.07 34.77 157.85 34.78 158.07 34.92 157.85 34.93 158.07 35.06 157.85 35.07 158.07 35.21 157.85 35.22 158.07 35.36 157.85 35.37 158.07 35.51 157.85 35.52 158.07 35.65 157.85 35.66 158.07 35.8 157.85 35.81 158.07 35.95 157.85 35.96 158.07 36.09 157.85 36.1 158.07 36.24 157.85 36.25 158.07 36.39 157.85 36.4 166.95 42 212.63 39.38 246.33 43.92 261.06 37.53 260.78 37.5 261.06 37.38 260.78 37.35 261.06 37.23 260.78 37.21 261.06 37.09 260.78 37.06 261.06 36.94 260.78 36.91 261.06 36.79 260.78 36.76 261.06 36.65 260.78 36.62 261.06 36.5 260.78 36.47 261.06 36.35 260.78 36.32 261.06 36.2 260.78 36.17 261.06 36.05 260.78 36.03 261.06 35.91 260.78 35.88 261.06 35.76 260.78 35.73 261.06 35.61 260.78 35.59 261.06 35.47 260.78 35.44 261.06 35.32 260.78 35.29 261.06 35.17 260.78 35.14 261.06 35.02 260.78 35 261.06 34.88 260.78 34.85 261.06 34.73 260.78 34.7 261.06 34.58 260.78 34.55 261.06 34.44 260.78 34.41 261.06 34.29 260.78 34.26 261.06 34.14 260.78 34.11 261.06 33.99 260.78 33.97 261.06 33.85 260.78 33.82 261.06 33.7 260.78 33.67 261.06 33.55 260.78 33.52 261.06 33.4 260.78 33.38 261.06 33.26 260.78 33.23 261.06 33.11 260.78 33.08 261.06 32.96 260.78 32.94 261.06 32.81 260.78 32.79 261.06 32.67 260.78 32.64 261.06 32.52 260.78 32.49 261.06 32.37 260.78 32.34 261.06 32.23 260.78 32.2 261.06 32.08 260.78 32.05 261.06 31.93 260.78 31.9 261.06 31.78 260.78 31.76 261.06 31.64 260.78 31.61 261.06 31.49 260.78 31.46 261.06 31.34 260.78 31.32 261.06 31.2 260.78 31.17 261.06 31.05 260.78 31.02 261.06 30.9 260.78 30.87 261.06 30.75 260.78 30.73 261.06 30.61 260.78 30.58 261.06 30.46 260.78 30.43 261.06 30.31 260.78 30.28 261.06 30.16 260.78 30.14 261.06 30.02 260.78 29.99 261.06 29.87 260.78 29.84 261.06 29.72 260.78 29.69 261.06 29.57 260.78 29.55 261.06 29.43 260.78 29.4 261.06 29.28 260.78 29.25 261.06 29.13 260.78 29.11 261.06 28.99 260.78 28.96 261.06 28.84 260.78 28.81 261.06 28.69 260.78 28.66 261.06 28.54 260.78 28.52 261.06 28.4 260.78 28.37 261.06 28.25 260.78 28.22 261.06 28.1 260.78 28.07 261.06 27.95 260.78 27.93 261.06 27.81 260.78 27.78 261.06 27.66 260.78 27.63 261.06 27.51 260.78 27.48 261.06 27.37 260.78 27.34 261.06 27.22 260.78 27.19 261.06 27.07 260.78 27.04 261.06 26.92 260.78 26.9 261.06 26.78 260.78 26.75 261.06 26.63 260.78 26.6 261.06 26.48 260.78 26.45 261.06 26.34 260.78 26.31 261.06 26.19 260.78 26.16 261.06 26.04 260.78 26.01 261.06 25.89 260.78 25.86 261.06 25.75 260.78 25.72 261.06 25.6 260.78 25.57 261.06 25.45 260.78 25.42 261.06 25.3 260.78 25.28 261.06 25.16 260.78 25.13 261.06 25.01 260.78 24.98 261.06 24.86 260.78 24.83 261.06 24.71 260.78 24.69 261.06 24.57 260.78 24.54 261.06 24.42 260.78 24.39 261.06 24.27 260.78 24.25 261.06 24.13 260.78 24.1 261.06 23.98 260.78 23.95 261.06 23.83 260.78 23.8 261.06 23.68 260.78 23.66 261.06 23.54 260.78 23.51 261.06 23.39 260.78 23.36 261.06 23.24 260.78 23.21 261.06 23.09 260.78 23.07 261.06 22.95 260.78 22.92 261.06 22.8 260.78 22.77"/>
    <polygon class="cls-2" points="202.47 19.25 210.53 12.25 239.75 13.13 232.93 19.77 261.06 22.65 246.33 29.05 212.63 24.5 166.95 27.13 157.85 21.52 202.47 19.25"/>
  </g>
  <g id="cage1">
    <path class="cls-3" d="M261.41,22.82a.17.17,0,0,0,0,0h0a.17.17,0,0,0,0-.09h0a.17.17,0,0,0-.09,0h0l-21.2-2.17a.17.17,0,0,0,0-.12V13.3a.17.17,0,0,0,0-.06h0a.17.17,0,0,0-.05-.07h0l-.08,0h0l-29.22-.87a.19.19,0,0,0-.12,0l-8,7L158,21.53h0l-.08,0h0a.17.17,0,0,0-.05.08h0s0,0,0,0a.17.17,0,0,0,0,0V36.43a.17.17,0,0,0,.08.15l9.1,5.75h0l.08,0h0l45.66-2.62,33.69,4.55h.1L261,37.69a.18.18,0,0,0,.1-.16l.27-14.7Zm-21.63-2.36-6.29-.64,6.26-6.1v6.65A.17.17,0,0,0,239.78,20.46Zm-37.12-.86a.17.17,0,0,0,.11,0l8-7,28.74.86L233,19.82a.18.18,0,0,0,.1.3l27.47,2.81L246.48,29l-33.65-4.54h0l-45.62,2.62-8.57-5.28ZM167.3,27.47l45.32-2.61V39.38L167.3,42Zm-9.1,8.87V22L167,27.4V41.86ZM213,39.4V24.88l33.35,4.5V43.9Zm47.81-2-14.11,6.41V29.34l14.37-6.24Z"/>
  </g>
  <g id="building2">
    <path class="cls-4" d="M377,57.54l.24-.16S331.94,53,331.42,52.83s-3.67-10.33-3.67-10.33-36.4.18-37.45,0l0,.18h0l0,.18h0l0,.18h0l0,.18h0l0,.18h0l0,.18h0l0,.18h0l0,.18h0l0,.18h0l0,.18h0l0,.18h0l0,.18h0l0,.18h0l0,.18h0l0,.18h0l0,.18h0l0,.18h0l0,.18h0l0,.18h0l0,.18h0l0,.18h0l0,.18h0l0,.18h0l0,.18h0l0,.18h0l0,.18h0l0,.18h0l0,.18h0l0,.18h0l0,.18h0l0,.18h0l0,.18h0l0,.18h0l0,.18h0l0,.18h0l0,.18h0l0,.18h0l0,.18h0l0,.18h0l0,.18h0l0,.18h0l0,.18h0l0,.18h0l0,.18h0l0,.18h0l0,.18h0l0,.18h0l0,.18h0l0,.18h0l0,.18h0l0,.18h0l0,.18h0l0,.18h0l0,.18h0l0,.18h0l0,.18h0l0,.18h0l0,.18h0l0,.18h0l0,.18h0l0,.18h0l0,.18h0l0,.18h0l0,.18h0l0,.18h0l-44.35,6.3.29.14-.29,0,.29.14-.29,0,.29.14-.29,0,.29.14-.29,0,.29.14-.29,0,.29.14-.29,0,.29.14-.29,0,.29.14-.29,0,.29.14-.29,0,.29.14-.29,0,.29.14-.29,0,.29.14-.29,0,.29.14-.29,0,.29.14-.29,0,.29.14-.29,0,.29.14-.29,0,.29.14-.29,0,.29.14-.29,0,.29.14-.29,0,.29.14-.29,0,.29.14-.29,0,.29.14-.29,0,.29.14-.29,0,.29.14-.29,0,.29.14-.29,0,.29.14-.29,0,.29.14-.29,0,.29.14-.29,0,.29.14-.29,0,.29.14-.29,0,.29.14-.29,0,.29.14-.29,0,.29.14-.29,0,.29.14-.29,0,.29.14-.29,0,.29.14-.29,0,.29.14-.29,0,.29.14-.29,0,.29.14-.29,0,.29.14-.29,0,.29.14-.29,0,.29.14-.29,0,.29.14-.29,0,.29.14-.29,0,.29.14-.29,0,.29.14-.29,0,.29.14-.29,0,.29.14-.29,0,.29.14-.29,0,.29.14-.29,0,.29.14-.29,0,.29.14-.29,0,.29.14-.29,0,.29.14-.29,0,.29.14-.29,0,.29.14-.29,0,.29.14-.29,0,.29.14-.29,0,.29.14-.29,0,.29.14-.29,0,.29.14-.29,0,.29.14-.29,0,.29.14-.29,0,.29.14-.29,0,.29.14-.29,0,.29.14-.29,0,.29.14-.29,0,.29.14-.29,0,.29.14-.29,0,.29.14-.29,0,.29.14-.29,0,.29.14-.29,0,.29.14-.29,0,.29.14-.29,0,.29.14-.29,0,.29.14-.29,0,.29.14-.29,0,.29.14-.29,0,.29.14-.29,0,.29.14-.29,0,.29.14-.29,0,.29.14-.29,0,.29.14-.29,0,.29.14-.29,0,.29.14-.29,0,.29.14-.29,0,.29.14-.29,0,.29.14-.29,0,.29.14-.29,0,.29.14-.29,0,.29.14-.29,0,.29.14-.29,0,.29.14-.29,0,.29.14-.29,0,.29.14-.29,0,.29.14-.29,0,.29.14-.29,0,.29.14-.29,0,.29.14-.29,0,.29.14-.29,0,.29.14-.29,0,19.32,9.1,47.77-8,49.53,5.42,14.7-9.62-.24,0,.24-.16-.24,0,.24-.16-.24,0,.24-.16L377,75l.24-.16-.24,0,.24-.16-.24,0,.24-.16-.24,0,.24-.16-.24,0,.24-.16-.24,0,.24-.16-.24,0,.24-.16-.24,0,.24-.16-.24,0,.24-.16-.24,0,.24-.16-.24,0,.24-.16L377,73l.24-.16-.24,0,.24-.16-.24,0,.24-.16-.24,0,.24-.16-.24,0,.24-.16-.24,0,.24-.16L377,72l.24-.16-.24,0,.24-.16-.24,0,.24-.16-.24,0,.24-.16-.24,0,.24-.16-.24,0,.24-.16-.24,0,.24-.16-.24,0,.24-.16-.24,0,.24-.16-.24,0,.24-.16-.24,0,.24-.16L377,70l.24-.16-.24,0,.24-.16-.24,0,.24-.16-.24,0,.24-.16-.24,0,.24-.16-.24,0,.24-.16-.24,0,.24-.16-.24,0,.24-.16-.24,0,.24-.16-.24,0,.24-.16-.24,0,.24-.16L377,68l.24-.16-.24,0,.24-.16-.24,0,.24-.16-.24,0,.24-.16-.24,0,.24-.16-.24,0,.24-.16-.24,0,.24-.16-.24,0,.24-.16-.24,0,.24-.16-.24,0,.24-.16-.24,0,.24-.16L377,66l.24-.16-.24,0,.24-.16-.24,0,.24-.16-.24,0,.24-.16-.24,0,.24-.16-.24,0,.24-.16-.24,0,.24-.16-.24,0,.24-.16-.24,0,.24-.16-.24,0,.24-.16-.24,0,.24-.16L377,64l.24-.16-.24,0,.24-.16-.24,0,.24-.16-.24,0,.24-.16-.24,0,.24-.16-.24,0,.24-.16-.24,0,.24-.16-.24,0,.24-.16-.24,0,.24-.16-.24,0,.24-.16-.24,0,.24-.16L377,62l.24-.16-.24,0,.24-.16-.24,0,.24-.16-.24,0,.24-.16-.24,0,.24-.16-.24,0,.24-.16L377,61l.24-.16-.24,0,.24-.16-.24,0,.24-.16-.24,0,.24-.16-.24,0,.24-.16-.24,0,.24-.16-.24,0,.24-.16-.24,0,.24-.16-.24,0,.24-.16-.24,0,.24-.16-.24,0,.24-.16L377,59l.24-.16-.24,0,.24-.16-.24,0,.24-.16-.24,0,.24-.16-.24,0,.24-.16-.24,0,.24-.16-.24,0,.24-.16-.24,0,.24-.16Z"/>
  </g>
  <g id="cage2">
    <path class="cls-3" d="M378.14,62.67l.24-.16-.24,0,.24-.16-.24,0,.24-.16-.24,0,.24-.16-.24,0,.24-.16-.24,0,.24-.16-.24,0,.24-.16-.24,0,.24-.16-.24,0,.24-.16-.24,0,.24-.16-.24,0,.24-.16-.24,0,.24-.16-.24,0,.24-.16-.24,0,.24-.16-.24,0,.24-.16-.24,0,.24-.16-.24,0,.24-.16-.24,0,.24-.16-.24,0,.24-.16-.24,0,.24-.16-.24,0,.24-.16-.24,0,.24-.16-.24,0,.24-.16-.24,0,.24-.16-.24,0,.24-.16-.24,0,.24-.16-.24,0,.24-.16-.24,0,.24-.16-.24,0,.24-.16-.5,0c-15.43-1.49-44.68-4.34-45.8-4.54-.44-.46-2.42-6.48-3.58-10.21l0-.12h-.13c-12.59.06-36.6.14-37.42,0l-.23,0h0l0,.18h0l0,.18h0l0,.18h0l0,.18h0l0,.18h0l0,.18h0l0,.18h0l0,.18h0l0,.18h0l0,.18h0l0,.18h0l0,.17h0l0,.2h0l0,.18h0l0,.18h0l0,.18h0l0,.17h0l0,.2h0l0,.18h0l0,.18h0l0,.18h0l0,.18h0l0,.18h0l0,.18h0l0,.18h0l0,.18h0l0,.18h0l0,.18h0l0,.18h0l0,.18h0l0,.17h0l0,.2h0l0,.18h0l0,.18h0l0,.18h0l0,.18h0l0,.18h0l0,.18h0l0,.18h0l0,.18h0l0,.18h0l0,.18h0l0,.18h0l0,.18h0l0,.18h0l0,.18h0l0,.18h0l0,.18h0l0,.18h0l0,.18h0l0,.18h0l0,.18h0l0,.18h0l0,.18h0l0,.18h0l0,.18h0l0,.18h0l0,.18h0l0,.18h0l0,.18h0l0,.18h0l0,.18h0l0,.18h0l0,.18h0l0,.18h0v.08l-44.76,6.36.29.14-.29,0,.29.14-.29,0,.29.14-.29,0,.29.14-.29,0,.29.14-.29,0,.29.14-.29,0,.29.14-.29,0,.29.14-.29,0,.29.14-.29,0,.29.14-.29,0,.29.14-.29,0,.29.14-.29,0,.29.14-.29,0,.29.14-.29,0,.29.14-.29,0,.29.14-.29,0,.29.14-.29,0,.29.14-.29,0,.29.14-.29,0,.29.14-.29,0,.29.14-.29,0,.29.14-.29,0,.29.14-.29,0,.29.14-.29,0,.29.14-.29,0,.29.14-.29,0,.29.14-.29,0,.29.14-.29,0,.29.14-.29,0,.29.14-.29,0,.29.14-.29,0,.29.14-.29,0,.29.14-.29,0,.29.14-.29,0,.29.14-.29,0,.29.14-.29,0,.29.14-.29,0,.29.14-.29,0,.29.14-.29,0,.29.14-.29,0,.29.14-.29,0,.29.14-.29,0,.29.14-.29,0,.29.14-.29,0,.29.14-.29,0,.29.14-.29,0,.29.14-.29,0,.29.14-.29,0,.29.14-.29,0,.29.14-.29,0,.29.14-.29,0,.29.14-.29,0,.29.14-.29,0,.29.14-.29,0,.29.14-.29,0,.29.14-.29,0,.29.14-.29,0,.29.14-.29,0,.29.14-.29,0,.29.14-.29,0,.29.14-.29,0,.29.14-.29,0,.29.14-.29,0,.29.14-.29,0,.29.14-.29,0,.29.14-.29,0,.29.14-.29,0,.29.14-.29,0,.29.14-.29,0,.29.14-.29,0,.29.14-.29,0,.29.14-.29,0,.29.14-.29,0,.29.14-.29,0,.29.14-.29,0,.29.14-.29,0,.29.14-.29,0,.29.14-.29,0,.29.14-.29,0,.29.14-.29,0,.29.14-.29,0,.29.14-.29,0,.29.14-.29,0,.29.14-.29,0,.29.14-.29,0,.29.14-.29,0,.29.14-.29,0,.29.14-.29,0,.29.14-.29,0,.29.14-.29,0,.29.14-.29,0,.29.14-.29,0,.29.14-.29,0,.29.14-.29,0,.29.14-.29,0,.29.14-.29,0,.29.14-.29,0,.29.14-.29,0,.29.14-.29,0,.29.14-.29,0,.29.14-.29,0L265.8,88.2l0,0,47.81-8.06,49.56,5.43,15.17-9.93-.24,0,.24-.16-.24,0,.24-.16-.24,0,.24-.16-.24,0,.24-.16-.24,0,.24-.16-.24,0,.24-.16-.24,0,.24-.16-.24,0,.24-.16-.24,0,.24-.16-.24,0,.24-.16-.24,0,.24-.16-.24,0,.24-.16-.24,0,.24-.16-.24,0,.24-.16-.24,0,.24-.16-.24,0,.24-.16-.24,0,.24-.16-.24,0,.24-.16-.24,0,.24-.16-.24,0,.24-.16-.24,0,.24-.16-.24,0,.24-.16-.24,0,.24-.16-.24,0,.24-.16-.24,0,.24-.16-.24,0,.24-.16-.24,0,.24-.16-.24,0,.24-.16-.24,0,.24-.16-.24,0,.24-.16-.24,0,.24-.16-.24,0,.24-.16-.24,0,.24-.16-.24,0,.24-.16-.24,0,.24-.16-.24,0,.24-.16-.24,0,.24-.16-.24,0,.24-.16-.24,0,.24-.16-.24,0,.24-.16-.24,0,.24-.16-.24,0,.24-.16-.24,0,.24-.16-.24,0,.24-.16-.24,0,.24-.16-.24,0,.24-.16-.24,0,.24-.16-.24,0,.24-.16-.24,0,.24-.16-.24,0,.24-.16-.24,0,.24-.16-.24,0,.24-.16-.24,0,.24-.16-.24,0,.24-.16-.24,0,.24-.16-.24,0,.24-.16-.24,0,.24-.16-.24,0,.24-.16-.24,0,.24-.16-.24,0,.24-.16-.24,0,.24-.16-.24,0,.24-.16-.24,0,.24-.16-.24,0,.24-.16-.24,0,.24-.16-.24,0,.24-.16-.24,0,.24-.16-.24,0,.24-.16-.24,0,.24-.16-.24,0,.24-.16-.24,0,.24-.16-.24,0,.24-.16ZM326,42.9h2.24c1.19,3.84,3.22,10.14,3.75,10.32l.16,0,.76.09.32,0,.53.06.37,0,1.47.15.72.07,1.2.12.42,0,3.39.34.17,0c11.95,1.19,31.43,3.08,35.88,3.51l-.24.16h0l-14,9.16-49.46-5.42h0l-47.74,8L247.45,61h0l-.29-.14,43.77-6.22h0l.17,0v0l1-.15.17,0-1.2-11.32h0l0-.19C293.82,43,318.14,42.93,326,42.9ZM266,70l47.43-8V79.84l-47.43,8Zm47.77-8L363,67.37V85.22l-49.18-5.39Zm-22.73-7.9h0l0-.18h0l0-.18h0l0-.18h0l0-.18h0l0-.18h0l0-.18h0l0-.18h0l0-.18h0l0-.18h0l0-.18h0l0-.18h0l0-.18h0l0-.18h0l0-.18h0l0-.18h0l0-.18h0l0-.18h0l0-.18h0l0-.18h0l0-.18h0l0-.17h0l0-.2h0l0-.18h0l0-.18h0l0-.18h0l0-.17h0l0-.2h0l0-.18h0l0-.18h0l0-.18h0l0-.18h0l0-.18h0l0-.18h0l0-.18h0l0-.18h0l0-.18h0l0-.18h0l0-.18h0l0-.18h0l0-.17h0l0-.2h0l0-.18h0l0-.18h0l.82,7.77-.82.12ZM247.15,78.85l.29,0-.29-.14.29,0-.29-.14.29,0-.29-.14.29,0-.29-.14.29,0-.29-.14.29,0-.29-.14.29,0-.29-.14.29,0-.29-.14.29,0-.29-.14.29,0-.29-.14.29,0-.29-.14.29,0-.29-.14.29,0-.29-.14.29,0-.29-.14.29,0-.29-.14.29,0-.29-.14.29,0-.29-.14.29,0-.29-.14.29,0-.29-.14.29,0-.29-.14.29,0-.29-.14.29,0-.29-.14.29,0-.29-.14.29,0-.29-.14.29,0-.29-.14.29,0-.29-.14.29,0-.29-.14.29,0-.29-.14.29,0-.29-.14.29,0-.29-.14.29,0-.29-.14.29,0-.29-.14.29,0-.29-.14.29,0-.29-.14.29,0-.29-.14.29,0-.29-.14.29,0-.29-.14.29,0-.29-.14.29,0-.29-.14.29,0-.29-.14.29,0-.29-.14.29,0-.29-.14.29,0-.29-.14.29,0-.29-.14.29,0-.29-.14.29,0-.29-.14.29,0-.29-.14.29,0-.29-.14.29,0-.29-.14.29,0-.29-.14.29,0-.29-.14.29,0-.29-.14.29,0-.29-.14.29,0-.29-.14.29,0-.29-.14.29,0-.29-.14.29,0-.29-.14.29,0-.29-.14.29,0-.29-.14.29,0-.29-.14.29,0-.29-.14.29,0-.29-.14.29,0-.29-.14.29,0-.29-.14.29,0-.29-.14.29,0-.29-.14.29,0-.29-.14.29,0-.29-.14.29,0-.29-.14.29,0-.29-.14.29,0-.29-.14.29,0-.29-.14.29,0-.29-.14.29,0-.29-.14.29,0-.29-.14.29,0-.29-.14.29,0-.29-.14.29,0-.29-.14.29,0-.29-.14.29,0-.29-.14.29,0-.29-.14.29,0-.29-.14.29,0-.29-.14.29,0-.29-.14.29,0-.29-.14.29,0-.29-.14.29,0-.29-.14.29,0-.29-.14.29,0-.29-.14.29,0-.29-.14.29,0-.29-.14.29,0-.29-.14.29,0-.29-.14.29,0-.29-.14.29,0-.29-.14.29,0-.29-.14.29,0-.29-.14.25,0L265.69,70V87.76L247.15,79l.29,0ZM377.36,59l-.24.16.24,0-.24.16.24,0-.24.16.24,0-.24.16.24,0-.24.16.24,0-.24.16.24,0-.24.16.24,0-.24.16.24,0-.24.16.24,0-.24.16.24,0-.24.16.24,0-.24.16.24,0-.24.16.24,0-.24.16.24,0-.24.16.24,0-.24.16.24,0-.24.16.24,0-.24.16.24,0-.24.16.24,0-.24.16.24,0-.24.16.24,0-.24.16.24,0-.24.16.24,0-.24.16.24,0-.24.16.24,0-.24.16.24,0-.24.16.24,0-.24.16.24,0-.24.16.24,0-.24.16.24,0-.24.16.24,0-.24.16.24,0-.24.16.24,0-.24.16.24,0-.24.16.24,0-.24.16.24,0-.24.16.24,0-.24.16.24,0-.24.16.24,0-.24.16.24,0-.24.16.24,0-.24.16.24,0-.24.16.24,0-.24.16.24,0-.24.16.24,0-.24.16.24,0-.24.16.24,0-.24.16.24,0-.24.16.24,0-.24.16.24,0-.24.16.24,0-.24.16.24,0-.24.16.24,0-.24.16.24,0-.24.16.24,0-.24.16.24,0-.24.16.24,0-.24.16.24,0-.24.16.24,0-.24.16.24,0-.24.16.24,0-.24.16.24,0-.24.16.24,0-.24.16.24,0-.24.16.24,0-.24.16.24,0-.24.16.24,0-.24.16.24,0-.24.16.24,0-.24.16.24,0-.24.16.24,0-.24.16.24,0-.24.16.24,0-.24.16.24,0-.24.16.24,0-.24.16.24,0-.24.16.24,0-.24.16.24,0-.24.16.24,0-.24.16.24,0-.24.16.24,0-.24.16.24,0-.24.16.24,0-.24.16.24,0-.24.16.24,0-.24.16.24,0-.24.16.24,0-.24.16.24,0-.24.16.24,0-.24.16.24,0-.24.16.24,0-.24.16.24,0-.24.16.24,0-.24.16.24,0-14,9.18V67.31l13.85-9.07.16,0-.24.16.24,0-.24.16.24,0-.24.16.24,0-.24.16Z"/>
  </g>
  <g id="building3">
    <g>
      <polygon class="cls-5" points="643.39 153.29 643.56 153.3 632.13 130.67 542.76 127.17 503.56 105.7 453.63 112.47 453.9 112.65 453.6 112.69 453.88 112.88 453.58 112.92 453.86 113.11 453.56 113.15 453.83 113.33 453.54 113.37 453.81 113.56 453.51 113.6 453.79 113.78 453.49 113.83 453.77 114.01 453.47 114.05 453.74 114.24 453.44 114.28 453.72 114.47 453.42 114.5 453.7 114.69 453.4 114.73 453.68 114.92 453.38 114.96 453.65 115.14 453.35 115.18 453.63 115.37 453.33 115.41 453.61 115.6 453.31 115.64 453.58 115.82 453.29 115.86 453.56 116.05 453.26 116.09 453.54 116.28 453.24 116.32 453.51 116.5 453.22 116.54 453.49 116.73 453.19 116.77 453.47 116.96 453.17 117 453.44 117.18 453.15 117.22 453.42 117.41 453.13 117.45 453.4 117.64 453.11 117.68 453.38 117.86 453.08 117.9 453.35 118.09 453.06 118.13 453.33 118.32 453.04 118.36 453.31 118.54 453.01 118.58 453.28 118.77 452.99 118.81 453.26 119 452.97 119.03 453.24 119.22 452.95 119.26 453.21 119.45 452.92 119.49 453.19 119.67 452.9 119.71 453.17 119.9 452.88 119.94 453.15 120.13 452.86 120.17 453.12 120.35 452.83 120.39 453.1 120.58 452.81 120.62 453.08 120.81 452.79 120.85 453.05 121.03 452.76 121.07 453.03 121.26 452.74 121.3 453.01 121.49 452.72 121.53 452.99 121.71 452.7 121.75 452.96 121.94 452.68 121.98 452.94 122.17 452.65 122.2 452.92 122.39 452.63 122.43 452.89 122.62 452.61 122.66 452.87 122.85 452.58 122.89 452.85 123.07 452.56 123.11 452.82 123.3 452.54 123.34 452.8 123.53 452.52 123.56 452.78 123.75 452.49 123.79 452.76 123.98 452.47 124.02 452.73 124.2 452.45 124.24 452.71 124.43 452.43 124.47 452.69 124.66 452.4 124.7 452.66 124.89 452.38 124.92 452.64 125.11 452.36 125.15 452.62 125.34 452.34 125.38 452.6 125.56 452.31 125.6 452.57 125.79 452.29 125.83 452.55 126.02 452.27 126.06 452.53 126.24 452.25 126.28 452.5 126.47 452.22 126.51 452.48 126.7 452.2 126.73 452.46 126.92 452.18 126.96 452.44 127.15 452.15 127.19 452.41 127.38 452.13 127.41 452.39 127.6 452.11 127.64 452.37 127.83 452.09 127.87 452.34 128.06 452.06 128.09 452.32 128.28 452.04 128.32 452.3 128.51 452.02 128.55 452.27 128.74 452 128.77 452.25 128.96 451.97 129 452.23 129.19 451.95 129.23 452.21 129.42 451.93 129.45 452.18 129.64 451.91 129.68 452.16 129.87 451.88 129.91 452.14 130.09 451.86 130.13 452.11 130.32 451.84 130.36 452.09 130.55 451.81 130.59 452.07 130.78 451.79 130.81 452.05 131 451.77 131.04 452.02 131.23 451.75 131.26 452 131.45 451.73 131.49 451.98 131.68 451.7 131.72 451.95 131.91 451.68 131.94 451.93 132.13 451.66 132.17 451.91 132.36 451.63 132.4 451.88 132.59 451.61 132.62 451.86 132.81 451.59 132.85 451.84 133.04 451.57 133.08 451.82 133.27 451.54 133.3 451.79 133.49 451.52 133.53 451.77 133.72 451.5 133.76 451.75 133.95 451.48 133.98 451.73 134.17 451.45 134.21 451.7 134.4 451.43 134.44 451.68 134.63 451.41 134.66 451.66 134.85 451.38 134.89 451.63 135.08 451.36 135.12 451.61 135.31 451.34 135.34 465.65 146.38 440.82 158.2 441.18 158.3 440.78 158.49 441.14 158.58 440.75 158.77 441.11 158.87 440.71 159.06 441.07 159.16 440.68 159.34 441.04 159.44 440.65 159.63 441 159.73 440.61 159.91 440.97 160.01 440.58 160.2 440.94 160.3 440.55 160.48 440.9 160.58 440.51 160.77 440.87 160.87 440.48 161.05 440.83 161.15 440.44 161.34 440.8 161.44 440.41 161.63 440.77 161.72 440.38 161.91 440.73 162.01 440.34 162.2 440.7 162.29 440.31 162.48 440.66 162.58 440.28 162.77 440.63 162.87 440.24 163.05 440.6 163.15 440.21 163.34 440.56 163.44 440.18 163.62 440.53 163.72 440.14 163.91 440.49 164.01 440.11 164.19 440.46 164.29 440.07 164.48 440.42 164.58 440.04 164.76 440.39 164.87 440.01 165.05 440.36 165.15 439.97 165.34 440.32 165.44 439.94 165.62 440.29 165.72 439.9 165.91 440.25 166.01 439.87 166.19 440.22 166.29 439.84 166.48 440.18 166.58 439.8 166.76 440.15 166.86 439.77 167.05 440.12 167.15 439.74 167.33 440.08 167.44 439.7 167.62 440.05 167.72 439.67 167.91 440.01 168.01 439.63 168.19 439.98 168.29 439.6 168.48 439.94 168.58 439.57 168.76 439.91 168.86 439.53 169.05 439.88 169.15 439.5 169.33 439.84 169.43 439.47 169.62 439.81 169.72 439.43 169.9 439.77 170 439.4 170.19 439.74 170.29 439.36 170.47 439.71 170.57 439.33 170.76 439.67 170.86 439.3 171.04 439.64 171.15 439.26 171.33 439.6 171.43 439.23 171.62 439.57 171.72 439.19 171.9 439.54 172 439.16 172.19 439.5 172.29 439.13 172.47 439.47 172.57 439.09 172.76 439.43 172.86 439.06 173.04 439.4 173.15 439.03 173.33 439.37 173.43 438.99 173.61 439.33 173.72 438.96 173.9 439.3 174 438.93 174.19 439.26 174.29 438.89 174.47 439.23 174.57 438.86 174.76 439.19 174.86 438.82 175.04 439.16 175.14 438.79 175.33 439.13 175.43 438.76 175.61 439.09 175.71 438.72 175.9 439.06 176 438.69 176.18 439.02 176.28 438.65 176.47 438.99 176.57 438.62 176.75 438.95 176.86 438.59 177.04 438.92 177.14 438.55 177.32 438.89 177.43 438.52 177.61 438.85 177.71 438.49 177.9 438.82 178 438.45 178.18 438.78 178.28 438.42 178.47 438.75 178.57 438.38 178.75 438.72 178.85 438.35 179.04 438.68 179.14 438.32 179.32 438.65 179.43 438.28 179.61 438.61 179.71 438.25 179.89 438.58 180 438.22 180.18 438.55 180.28 438.18 180.46 438.51 180.57 438.15 180.75 438.48 180.85 438.11 181.03 438.44 181.14 438.08 181.32 438.41 181.42 438.05 181.61 438.37 181.71 438.01 181.89 438.34 182 437.98 182.18 438.31 182.28 437.95 182.46 438.27 182.57 437.91 182.75 438.24 182.85 437.88 183.03 438.2 183.14 437.84 183.32 438.17 183.42 437.81 183.6 438.14 183.71 437.78 183.89 438.1 183.99 437.74 184.18 438.07 184.28 437.71 184.46 438.03 184.56 437.68 184.75 438 184.85 437.64 185.03 437.96 185.14 437.61 185.32 437.93 185.42 437.57 185.6 437.9 185.71 437.54 185.89 437.86 185.99 437.51 186.17 437.83 186.28 437.47 186.46 437.79 186.56 437.44 186.74 437.76 186.85 437.4 187.03 497.67 206.66 545.33 177.84 643.27 185.17 643.13 184.85 643.27 184.86 643.13 184.53 643.28 184.54 643.14 184.22 643.28 184.23 643.14 183.9 643.28 183.91 643.14 183.59 643.29 183.6 643.14 183.27 643.29 183.28 643.15 182.95 643.29 182.97 643.15 182.64 643.29 182.65 643.15 182.32 643.3 182.33 643.15 182.01 643.3 182.02 643.16 181.69 643.3 181.7 643.16 181.38 643.31 181.39 643.16 181.06 643.31 181.07 643.17 180.75 643.31 180.76 643.17 180.43 643.32 180.44 643.17 180.11 643.32 180.12 643.17 179.8 643.32 179.81 643.18 179.48 643.32 179.49 643.18 179.17 643.33 179.18 643.18 178.85 643.33 178.86 643.18 178.54 643.33 178.55 643.19 178.22 643.33 178.23 643.19 177.91 643.34 177.91 643.19 177.59 643.34 177.6 643.2 177.27 643.34 177.28 643.2 176.96 643.35 176.97 643.2 176.64 643.35 176.65 643.2 176.33 643.35 176.34 643.21 176.01 643.35 176.02 643.21 175.7 643.36 175.71 643.21 175.38 643.36 175.39 643.21 175.06 643.36 175.07 643.22 174.75 643.37 174.76 643.22 174.43 643.37 174.44 643.22 174.12 643.37 174.13 643.22 173.8 643.37 173.81 643.23 173.49 643.38 173.5 643.23 173.17 643.38 173.18 643.23 172.86 643.38 172.87 643.23 172.54 643.38 172.55 643.24 172.22 643.39 172.24 643.24 171.91 643.39 171.92 643.24 171.59 643.39 171.6 643.24 171.28 643.4 171.29 643.25 170.96 643.4 170.97 643.25 170.65 643.4 170.66 643.25 170.33 643.4 170.34 643.25 170.02 643.41 170.03 643.26 169.7 643.41 169.71 643.26 169.38 643.41 169.4 643.26 169.07 643.42 169.08 643.26 168.75 643.42 168.76 643.27 168.44 643.42 168.45 643.27 168.12 643.42 168.13 643.27 167.81 643.43 167.82 643.28 167.49 643.43 167.5 643.28 167.18 643.43 167.19 643.28 166.86 643.44 166.87 643.28 166.54 643.44 166.55 643.29 166.23 643.44 166.24 643.29 165.91 643.45 165.92 643.29 165.6 643.45 165.61 643.29 165.28 643.45 165.29 643.3 164.97 643.45 164.98 643.3 164.65 643.46 164.66 643.3 164.34 643.46 164.34 643.3 164.02 643.46 164.03 643.31 163.71 643.47 163.71 643.31 163.39 643.47 163.4 643.31 163.07 643.47 163.08 643.32 162.76 643.47 162.77 643.32 162.44 643.48 162.45 643.32 162.13 643.48 162.14 643.32 161.81 643.48 161.82 643.33 161.5 643.49 161.5 643.33 161.18 643.49 161.19 643.33 160.87 643.49 160.87 643.33 160.55 643.49 160.56 643.34 160.23 643.5 160.24 643.34 159.92 643.5 159.93 643.34 159.6 643.5 159.61 643.34 159.29 643.5 159.3 643.35 158.97 643.51 158.98 643.35 158.66 643.51 158.66 643.35 158.34 643.51 158.35 643.35 158.03 643.52 158.03 643.36 157.71 643.52 157.72 643.36 157.39 643.52 157.4 643.36 157.08 643.52 157.09 643.36 156.76 643.53 156.77 643.37 156.45 643.53 156.46 643.37 156.13 643.53 156.14 643.37 155.82 643.54 155.82 643.37 155.5 643.54 155.51 643.38 155.19 643.54 155.19 643.38 154.87 643.54 154.88 643.38 154.55 643.55 154.56 643.38 154.24 643.55 154.25 643.39 153.92 643.55 153.93 643.39 153.61 643.55 153.62 643.39 153.29"/>
      <polygon class="cls-2" points="453.63 112.47 503.56 105.7 542.76 127.17 632.13 130.67 643.56 153.3 546.96 148.4 500.52 174.53 440.82 158.2 488.39 135.57 453.63 112.47"/>
    </g>
  </g>
  <g id="cage3">
    <path class="cls-3" d="M643.68,153.66h.17l-.14-.27h0l-11.43-22.63h0l0-.09h-.1l-89.33-3.5-39.16-21.45h0l-.05,0-50.45,6.84.28.19-.3,0,.28.19-.3,0,.28.19-.3,0,.28.19-.3,0,.28.19-.3,0,.28.19-.3,0,.28.19-.3,0,.28.19-.3,0,.28.19-.3,0,.28.19-.3,0,.28.19-.3,0,.28.19-.3,0,.27.19-.3,0,.28.19-.3,0,.27.19-.3,0,.27.19-.3,0,.27.19-.3,0,.27.19-.3,0,.27.19-.3,0,.27.19-.29,0,.27.19-.29,0,.27.19-.29,0,.27.19-.29,0,.27.19-.29,0,.27.19-.29,0,.27.19-.29,0,.27.19-.29,0,.27.19-.29,0,.27.19-.29,0,.27.19-.29,0,.27.19-.29,0,.27.19-.29,0,.27.19-.29,0,.27.19-.29,0,.27.19-.29,0,.27.19-.29,0,.27.19-.29,0,.27.19-.29,0,.27.19-.29,0,.27.19-.29,0,.27.19-.29,0,.26.19-.29,0,.26.19-.29,0,.26.19-.29,0,.27.19-.29,0,.26.19-.29,0,.26.19-.29,0,.26.19-.29,0,.26.19-.28,0,.26.19-.29,0,.26.19-.28,0,.26.19-.28,0,.26.19-.28,0,.26.19-.28,0,.26.19-.28,0,.26.19-.28,0,.26.19-.28,0,.26.19-.28,0,.26.19-.28,0,.26.19-.28,0,.26.19-.28,0,.26.19-.28,0,.26.19-.28,0,.26.19-.28,0,.26.19-.28,0,.26.19-.28,0,.26.19-.28,0,.26.19-.28,0,.26.19-.28,0,.26.19-.28,0,.26.19-.28,0,.26.19-.28,0,.25.19-.28,0,.26.19-.28,0,.25.19-.28,0,.25.19-.28,0,.25.19-.28,0,.25.19-.28,0,.25.19-.28,0,.25.19-.28,0,.25.19-.28,0,.25.19-.28,0,.25.19-.27,0,.25.19-.27,0,.25.19-.27,0,.25.19-.27,0,.25.19-.27,0,.25.19-.27,0,.25.19-.27,0,.25.19-.27,0,.25.19-.27,0,.25.19-.27,0,.25.19-.27,0,.25.19-.27,0,.25.19-.27,0,.25.19-.27,0,.25.19-.27,0,.25.19-.27,0,.25.19-.27,0,.25.19-.27,0,.25.19-.27,0,14.42,11.13-24.58,11.69h0l-.43.2.36.1-.39.19.36.1-.39.19.36.1-.39.19.36.1-.39.19.36.1-.39.19.36.1-.39.19.36.1-.39.19.36.1-.39.19.36.1L440,161l.36.1-.39.19.36.1-.39.19.36.1-.39.19.35.1-.39.19.35.1-.39.19.35.1-.39.19.35.1-.39.19.35.1-.39.19.35.1-.39.19.35.1-.38.19.35.1-.38.19.35.1-.38.19.35.1-.38.19.35.1-.38.19.35.1-.38.19.35.1-.38.19.35.1-.38.19.35.1-.38.18.35.1-.38.18.35.1-.38.18.35.1-.38.19.35.1-.38.18.35.1-.38.18.35.1-.38.18.35.1-.38.18.35.1-.38.18.34.1-.38.18.35.1-.38.18.34.1-.38.18.34.1-.38.18.34.1-.38.18.34.1-.38.18.34.1-.38.18.34.1-.38.18.34.1-.38.18.34.1-.37.18.34.1-.37.18.34.1-.37.18.34.1-.37.18.34.1-.37.18.34.1-.37.18.34.1-.37.18.34.1-.37.18.34.1-.37.18.34.1-.37.18.34.1-.37.18.34.1-.37.18.34.1-.37.18.34.1-.37.18.34.1-.37.18.34.1-.37.18.34.1-.37.18.34.1-.37.18.33.1-.37.18.33.1-.37.18.33.1-.37.18.33.1-.37.18.33.1-.37.18.33.1-.37.18.33.1-.37.18.33.1-.37.18.33.1-.37.18.33.1-.36.18.33.1-.37.18.33.1-.36.18.33.1-.36.18.33.1-.36.18.33.1-.36.18.33.1-.36.18.33.1-.36.18.33.1-.36.18.33.1-.36.18.33.1-.36.18.33.1-.36.18.33.1-.36.18.33.1-.36.18.33.1-.36.18.33.1-.36.18.33.1-.36.18.33.1-.36.18.33.1-.36.18.33.1-.36.18.32.1-.36.18.32.1-.36.18.32.1-.36.18.32.1-.36.18.32.1-.36.18.32.1-.36.18.32.1-.36.18.32.1-.36.18.32.1L437,187l.32.1-.36.18L497.62,207l.08,0,47.68-28.83,98.17,7.35-.14-.33h.14l-.14-.33h.14l-.14-.33h.14l-.14-.33h.14l-.14-.33h.14l-.14-.33h.14l-.14-.33h.14l-.14-.33h.14l-.14-.33h.14l-.14-.33h.14l-.14-.33h.15l-.14-.33h.15l-.14-.33h.15l-.14-.33h.15l-.14-.33h.15l-.14-.33h.15l-.14-.33h.15l-.14-.33h.15l-.14-.33h.15l-.14-.33h.15l-.14-.33h.15l-.14-.33h.15l-.14-.33h.15l-.14-.33h.15l-.15-.33h.15l-.15-.33h.15l-.15-.33h.15l-.15-.33h.15l-.15-.33h.15l-.15-.33h.15l-.15-.33h.15l-.15-.33h.15l-.15-.33h.15l-.15-.33h.15l-.15-.33h.15l-.15-.33h.15l-.15-.33h.15l-.15-.33h.15l-.15-.33h.15l-.15-.33h.15l-.15-.33h.15l-.15-.33h.15l-.15-.33h.15l-.15-.33h.15l-.15-.32h.15l-.15-.33h.15l-.15-.33h.15l-.15-.33h.15l-.15-.32h.15l-.15-.33h.15l-.15-.33h.15l-.15-.33h.15l-.15-.32h.15l-.15-.33h.16l-.15-.33h.16l-.15-.33h.16l-.15-.33h.16l-.15-.32h.16l-.15-.33h.16l-.15-.33h.16l-.15-.32h.16l-.15-.33h.16l-.15-.33h.16l-.15-.33h.16l-.15-.32h.16l-.15-.32h.16l-.16-.33h.16l-.16-.32h.16l-.16-.32h.16l-.16-.33h.16l-.16-.32h.16l-.16-.33h.16l-.16-.33h.16l-.16-.32h.16l-.16-.33h.16l-.16-.32h.16l-.16-.33h.16l-.16-.32h.16l-.16-.32h.16l-.16-.33h.16l-.16-.32h.16l-.16-.32h.16l-.16-.32h.16l-.16-.32h.16l-.16-.32h.16l-.16-.32h.16l-.16-.32h.16l-.16-.32h.16l-.16-.32h.16l-.16-.33h.16l-.16-.32h.16l-.16-.32h.16l-.16-.33h.16l-.16-.32h.16l-.16-.32h.17l-.16-.32h.17l-.16-.32h.17l-.16-.32h.17l-.16-.32h.17l-.16-.32h.17Zm-191.9-18,.27,0-.25-.19.27,0-.25-.19.27,0-.25-.19.27,0-.25-.19.27,0-.25-.19.27,0-.25-.19.27,0-.25-.19.27,0-.25-.19.27,0-.25-.19.27,0-.25-.19.27,0-.25-.19.27,0-.25-.19.27,0-.25-.19.27,0-.25-.19.27,0-.25-.19.28,0-.25-.19.27,0-.25-.19.28,0-.25-.19.28,0-.25-.19.28,0-.25-.19.28,0-.25-.19.28,0-.25-.19.28,0-.25-.19.28,0-.25-.19.28,0-.25-.19.28,0-.25-.19.28,0-.25-.19.28,0-.25-.19.28,0-.26-.19.28,0-.26-.19.28,0-.26-.19.28,0-.26-.19.28,0-.26-.19.28,0-.26-.19.28,0-.26-.19.28,0-.26-.19.28,0-.26-.19.28,0-.26-.19.28,0-.26-.19.28,0-.26-.19.28,0-.26-.19.28,0-.26-.19.28,0-.26-.19.28,0-.26-.19.28,0-.26-.19.28,0-.26-.19.28,0-.26-.19.28,0-.26-.19.28,0-.26-.19.29,0-.26-.19.29,0-.26-.19.29,0-.26-.19.29,0-.26-.19.29,0-.26-.19.29,0-.26-.19.29,0-.26-.19.29,0-.26-.19.29,0-.27-.19.29,0-.26-.19.29,0-.27-.19.29,0-.27-.19.29,0-.27-.19.29,0-.27-.19.29,0-.27-.19.29,0-.27-.19.29,0-.27-.19.29,0-.27-.19.29,0-.27-.19.29,0-.27-.19.29,0-.27-.19.29,0-.27-.19.29,0-.27-.19.29,0-.27-.19.29,0-.27-.19.29,0-.27-.19.29,0-.27-.19.29,0-.27-.19.29,0-.27-.19.29,0-.27-.19.29,0-.27-.19.3,0-.27-.19.3,0-.27-.19.3,0-.27-.19.3,0-.27-.19.3,0-.27-.19.3,0-.27-.19.3,0-.27-.19.3,0-.27-.19.3,0-.28-.19.3,0-.28-.19.3,0-.28-.19.3,0-.28-.19.3,0-.28-.19.3,0-.28-.19.3,0-.28-.19.3,0-.28-.19.3,0-.28-.19.3,0-.28-.19.3,0-.28-.19h.08L488,135.72l-22.36,10.64ZM438.22,187l-.32-.1.36-.18-.32-.1.36-.18-.32-.1.36-.18L438,186l.36-.18-.32-.1.36-.18-.32-.1.36-.18-.32-.1.36-.18-.32-.1.36-.18-.32-.1.36-.18-.32-.1.36-.18-.32-.1.36-.18-.32-.1.36-.18-.33-.1.36-.18-.33-.1.36-.18-.33-.1.36-.18-.33-.1.36-.18-.33-.1.36-.18-.33-.1.36-.18-.33-.1.36-.18-.33-.1.36-.18-.33-.1.36-.18-.33-.1.36-.18-.33-.1.36-.18-.33-.1.36-.18-.33-.1.36-.18-.33-.1.37-.18-.33-.1.36-.18-.33-.1.36-.18-.33-.1.37-.18-.33-.1.37-.18-.33-.1.37-.18L439,178l.37-.18-.33-.1.37-.18-.33-.1.37-.18-.33-.1.37-.18-.33-.1.37-.18-.33-.1.37-.18-.33-.1.37-.18-.33-.1.37-.18-.33-.1.37-.18-.34-.1.37-.18-.34-.1.37-.18-.34-.1.37-.18-.34-.1.37-.18-.34-.1.37-.18-.34-.1.37-.18-.34-.1.37-.18-.34-.1.37-.18-.34-.1.37-.18-.34-.1.37-.18-.34-.1.37-.18-.34-.1.37-.18-.34-.1.37-.18-.34-.1.37-.18-.34-.1.38-.18-.34-.1.38-.18-.34-.1.38-.18-.34-.1.38-.18-.34-.1.38-.18-.34-.1.38-.18-.34-.1.38-.18-.34-.1.38-.18-.34-.1.38-.18-.34-.1.38-.18-.34-.1.38-.18-.35-.1.38-.19-.35-.1.38-.18-.35-.1.38-.18-.35-.1.38-.19-.35-.1.38-.19-.35-.1.38-.19-.35-.1.38-.19-.35-.1.38-.19-.35-.1.38-.19-.35-.1.38-.19-.35-.1.38-.19-.35-.1.38-.19-.35-.1.38-.19-.35-.1.38-.19-.35-.1.38-.19-.35-.1.39-.19-.35-.1.39-.19-.35-.1.39-.19-.35-.1.39-.19-.35-.1.39-.19-.35-.1.39-.19-.35-.1.39-.19-.35-.1.39-.19-.35-.1.39-.19-.35-.1.39-.19-.35-.1.39-.19-.36-.1.39-.19-.36-.1.39-.19-.36-.1.39-.19-.36-.1.39-.19-.36-.1.39-.19-.36-.1.39-.19-.36-.1.39-.19-.36-.1.3-.14,58.75,16.07-2.82,31.77-59.62-19.42Zm205-32.76h-.17l.16.32h-.17l.16.32h-.16l.16.32h-.16l.16.32h-.16l.16.32h-.16l.16.32h-.16l.16.33h-.16l.16.32h-.16l.16.32h-.16l.16.32h-.16l.16.32h-.16l.16.32h-.16l.16.32h-.16l.16.32h-.16l.16.32h-.16l.16.32h-.16l.16.32h-.16l.16.32H643l.16.32H643l.16.33H643l.16.32H643l.16.32H643l.16.32H643l.16.32H643l.16.33H643l.16.32H643l.16.32H643l.16.32H643l.16.33H643l.16.32H643l.16.32H643l.15.32H643l.16.33H643l.15.32H643l.15.32H643l.15.33H643l.15.33H643l.15.33H643l.15.32H643l.15.33H643l.15.33H643l.15.32H643l.15.33H643l.15.33H643l.15.32H643l.15.33H643l.15.33H643l.15.33H643l.15.32H643l.15.33H643l.15.32H643l.15.32H643l.15.33H643l.15.33H643l.15.32H643l.15.33H643l.15.33H643l.15.33H643l.15.33H643l.15.33h-.15l.15.33h-.15l.15.33h-.15l.15.33h-.15l.15.33h-.15l.15.33h-.15l.15.33h-.15l.15.33h-.15l.15.32h-.15l.15.33h-.15l.15.33h-.15l.15.33h-.15l.15.32h-.15l.15.33h-.15l.15.33h-.15l.15.33h-.15l.14.33h-.15l.14.33h-.15l.14.33h-.15l.14.33h-.15l.14.33h-.15l.14.33h-.15l.14.33h-.15l.14.33h-.15l.14.33h-.15l.14.33h-.15l.14.33h-.14l.14.33h-.14l.14.33h-.14l.14.33h-.14l.14.33h-.14l.14.33h-.14l.14.33h-.14l.14.33h-.14l.14.33h-.14l.14.33h-.14l.14.33h-.14l.14.33h-.14l.14.33-97.65-7.31h-.06l-47.45,28.7,2.82-31.7,46.17-26-1.71,29,.35,0,1.71-29.09H547l96.12,4.88.15.29h-.17Zm-.16-1h0L547,148.41a.16.16,0,0,0-.09,0l-46.37,26.1h0l-59.18-16.19,12.62-6,12-5.73h0l22.48-10.7a.17.17,0,0,0,0-.3l-34.38-22.84,49.42-6.7,39.15,21.44h0l0,0h0L632,131l11.25,22.27Z"/>
  </g>
  <g id="building4">
    <g>
      <path class="cls-6" d="M385.1,261.74l.25-.31L285.29,238.18l.62-10.53h0l0-.37h0l0-.37h0l0-.37h0l0-.37h0l0-.37h0l0-.37h0l0-.37h0l0-.37h0l0-.37h0l0-.37h0l0-.37h0l0-.37h0l0-.37h0l0-.37h0l0-.37h0l0-.37h0l0-.37h0l0-.37h0l0-.37h0l0-.37h0l0-.37h0l0-.37h0l0-.37h0l0-.37h0l0-.37h0l0-.37h0l0-.37h0l0-.37h0l0-.37h0l0-.37h0l0-.37h0l0-.37h0l0-.37h0l0-.37h0l0-.37h0l0-.37h0l0-.37h0l0-.37h0l0-.37h0l0-.37h0l0-.37h0l0-.37h0l0-.37h0l0-.37h0l0-.37h0l0-.37h0l0-.37h0l0-.37h0l0-.37h0l0-.37h0l0-.37h0l0-.37h0l0-.37h0l0-.37h0l0-.37h0l0-.37h0l0-.37h0l0-.37h0l0-.37h0l0-.37h0l0-.37h0l0-.37h0l0-.37h0l0-.37h0l0-.37h0l0-.37h0l0-.37h0l0-.37h0l0-.37h0l0-.37h0l0-.37h0l0-.37h0l0-.37h0l0-.37h0l0-.37h0l0-.37h0l0-.37h0l0-.37h0l0-.37h0l0-.37h0l0-.37h0l0-.37h0l0-.37h0l0-.37h0l0-.37h0l0-.37h0l0-.37h0l0-.37h0l0-.37h0l0-.37h0l0-.37h0l0-.37h0l0-.37h0l0-.37h0l0-.37h0l0-.37h0l0-.37h0l0-.37h0l0-.37h0l0-.37h0l0-.37s-74.9,3.15-75.95,2.8L193.2,242.53,61.25,282.43l.18.33-.13,0,.18.33-.13,0,.18.33-.13,0,.18.33-.13,0,.18.33-.13,0,.18.33-.13,0,.18.33-.13,0,.18.33-.13,0,.18.33-.13,0,.18.33-.13,0,.18.33-.13,0,.18.33-.13,0,.18.33-.13,0,.18.33-.12,0,.18.33-.12,0,.18.33-.12,0,.18.33-.12,0,.18.33-.12,0,.18.33-.12,0,.18.33-.12,0,.18.33-.12,0,.18.33-.12,0,.18.33-.12,0,.18.33-.12,0,.18.33-.12,0,.18.33-.12,0,.18.33-.12,0,.18.33-.12,0,.18.33-.12,0,.18.33-.12,0,.18.33-.12,0,.18.33-.12,0,.18.33-.12,0,.18.33-.12,0,.18.33-.12,0,.18.33-.12,0,.18.33-.12,0,.18.33-.12,0,.18.33-.12,0,.18.33-.12,0,.18.33-.12,0,.18.33-.12,0,.18.33-.12,0,.18.33-.12,0,.18.33-.12,0,.18.33-.12,0,.18.33-.12,0,.18.33-.12,0,.18.33-.12,0,.18.33-.12,0,.18.33-.12,0,.18.33-.12,0,.18.33-.12,0,.18.33-.12,0,.18.33-.12,0,.18.33-.12,0,.18.33-.12,0,.18.33-.12,0,.18.33-.12,0,.18.33-.12,0,.18.33-.12,0,.18.33-.12,0,.18.33-.12,0,.18.33-.12,0,.18.33-.12,0,.18.33-.12,0,.18.33-.12,0,.18.33-.12,0,.18.33-.12,0,.18.33-.12,0,.18.33-.12,0,.18.33-.12,0,.18.33-.12,0,.18.33-.12,0,.18.33-.12,0,.18.33-.12,0,.18.33-.12,0,.18.33-.12,0,.18.33-.12,0,.18.33-.12,0,.18.33-.12,0,.18.33-.12,0,.18.33-.12,0,.18.33-.12,0,.18.33-.12,0,.18.33-.12,0,.18.33-.12,0,.18.33-.12,0,.18.33-.12,0,.18.33-.12,0,.18.33-.12,0,.18.33-.12,0,.18.33-.12,0,.18.33-.12,0,.18.33-.12,0,.18.33-.12,0,.18.33-.12,0,.18.33-.12,0,.18.33-.12,0,.18.33-.12,0,.18.33-.12,0,26.5,49.7,139.7-50.75L345.44,349.1l39.91-50.4-.25-.06.25-.31-.25-.06.25-.31-.25-.06.25-.31-.25-.06.25-.31-.25-.06.25-.31-.25-.06.25-.31-.25-.06.25-.31-.25-.06.25-.31-.25-.06.25-.31-.25-.06.25-.31-.25-.06.25-.31-.25-.06.25-.31-.25-.06.25-.31-.25-.06.25-.31-.25-.06.25-.31-.25-.06.25-.31-.25-.06.25-.31-.25-.06.25-.31-.25-.06.25-.31-.25-.06.25-.31-.25-.06.25-.31-.25-.06.25-.31-.25-.06.25-.31-.25-.06.25-.31-.25-.06.25-.31-.25-.06.25-.31-.25-.06.25-.31-.25-.06.25-.31-.25-.06.25-.31-.25-.06.25-.31-.25-.06.25-.31-.25-.06.25-.31-.25-.06.25-.31-.25-.06.25-.31-.25-.06.25-.31-.25-.06.25-.31-.25-.06.25-.31-.25-.06.25-.31-.25-.06.25-.31-.25-.06.25-.31-.25-.06.25-.31-.25-.06.25-.31-.25-.06.25-.31-.25-.06.25-.31-.25-.06.25-.31-.25-.06.25-.31-.25-.06.25-.31-.25-.06.25-.31-.25-.06.25-.31-.25-.06.25-.31-.25-.06.25-.31-.25-.06.25-.31-.25-.06.25-.31-.25-.06.25-.31-.25-.06.25-.31-.25-.06.25-.31-.25-.06.25-.31-.25-.06.25-.31-.25-.06.25-.31-.25-.06.25-.31-.25-.06.25-.31-.25-.06.25-.31-.25-.06.25-.31-.25-.06.25-.31-.25-.06.25-.31-.25-.06.25-.31-.25-.06.25-.31-.25-.06.25-.31-.25-.06.25-.31-.25-.06.25-.31-.25-.06.25-.31-.25-.06.25-.31-.25-.06.25-.31-.25-.06.25-.31-.25-.06.25-.31-.25-.06.25-.31-.25-.06.25-.31-.25-.06.25-.31-.25-.06.25-.31-.25-.06.25-.31-.25-.06.25-.31-.25-.06.25-.31-.25-.06.25-.31-.25-.06.25-.31-.25-.06.25-.31-.25-.06.25-.31-.25-.06.25-.31-.25-.06.25-.31-.25-.06.25-.31-.25-.06.25-.31-.25-.06.25-.31-.25-.06.25-.31-.25-.06.25-.31-.25-.06.25-.31-.25-.06.25-.31-.25-.06.25-.31-.25-.06.25-.31-.25-.06.25-.31-.25-.06.25-.31-.25-.06.25-.31Z"/>
      <path class="cls-2" d="M208.25,193.18c1.05.35,75.95-2.8,75.95-2.8l-2.8,46.9,104,24.15-40.6,50.4L230.3,281.38,88.2,332.13l-26.95-49.7,132-39.9Z"/>
    </g>
  </g>
  <g id="cage4">
    <path class="cls-3" d="M385.41,261.81l.08-.09h0l.17-.22-.27-.06h0l-99.92-23.21.62-10.57h0l0-.37h0l0-.37h0l0-.37h0l0-.37h0l0-.37h0l0-.37h0l0-.37h0l0-.37h0l0-.37h0l0-.37h0l0-.37h0l0-.37h0l0-.37h0l0-.37h0l0-.37h0l0-.37h0l0-.37h0l0-.37h0l0-.37h0l0-.37h0l0-.37h0l0-.37h0l0-.37h0l0-.37h0l0-.37h0l0-.37h0l0-.37h0l0-.37h0l0-.37h0l0-.37h0l0-.37h0l0-.37h0l0-.37h0l0-.37h0l0-.37h0l0-.37h0l0-.37h0l0-.37h0l0-.37h0l0-.37h0l0-.37h0l0-.37h0l0-.37h0l0-.37h0l0-.37h0l0-.37h0l0-.37h0l0-.37h0l0-.37h0l0-.37h0l0-.37h0l0-.37h0l0-.37h0l0-.37h0l0-.37h0l0-.37h0l0-.37h0l0-.37h0l0-.37h0l0-.37h0l0-.37h0l0-.37h0l0-.37h0l0-.37h0l0-.37h0l0-.37h0l0-.37h0l0-.37h0l0-.37h0l0-.37h0l0-.37h0l0-.37h0l0-.37h0l0-.37h0l0-.37h0l0-.37h0l0-.37h0l0-.37h0l0-.37h0l0-.37h0l0-.37h0l0-.37h0l0-.37h0l0-.37h0l0-.37h0l0-.37h0l0-.37h0l0-.37h0l0-.37h0l0-.37h0l0-.37h0l0-.37h0l0-.37h0l0-.37h0l0-.37h0l0-.37h0l0-.37h0l0-.37h0l0-.37h0l0-.37h0v-.08l0-.29h-.19c-25.73,1.08-74.69,3.06-75.89,2.81l-.17-.06-15.08,49.43L61.2,282.44l-.21.06.18.33-.13,0,.18.33-.13,0,.18.33-.13,0,.18.33-.13,0,.18.33-.13,0,.18.33-.13,0,.18.33-.13,0,.18.33-.13,0,.18.33-.13,0,.18.33-.12,0,.18.33-.13,0,.18.33-.12,0,.18.33-.13,0,.18.33-.13,0,.18.33-.13,0,.18.33-.12,0,.18.33-.12,0,.18.33-.12,0,.18.33-.12,0,.18.33-.12,0,.18.33-.12,0,.18.33-.12,0,.18.33-.12,0,.18.33-.12,0,.18.33-.12,0,.18.33-.12,0,.18.33-.12,0,.18.33-.12,0,.18.33-.12,0,.18.33-.12,0,.18.33-.12,0,.18.33-.12,0,.18.33-.12,0L63,295l-.12,0,.18.33-.12,0,.18.33-.12,0,.18.33-.12,0,.18.33-.12,0,.18.33-.12,0,.18.33-.12,0,.18.33-.12,0,.18.33-.12,0,.18.33-.12,0,.18.33-.12,0,.18.33-.12,0,.18.33-.12,0,.18.33-.12,0,.18.33-.12,0,.18.33-.12,0,.18.33-.12,0,.18.33-.12,0,.18.33-.12,0L64,302l-.12,0,.18.33-.12,0,.18.33-.12,0,.18.33-.12,0,.18.33-.12,0,.18.33-.12,0,.18.33-.12,0,.18.33-.12,0,.18.33-.12,0,.18.33-.12,0,.18.33-.12,0,.18.33-.12,0,.18.33-.12,0,.18.33-.12,0,.18.33-.12,0,.18.33-.12,0,.18.33-.12,0,.18.33-.12,0,.18.33-.12,0L65,309l-.12,0,.18.33-.12,0,.18.33-.12,0,.18.33-.12,0,.18.33-.12,0,.18.33-.12,0,.18.33-.12,0,.18.33-.12,0,.18.33-.12,0,.18.33-.12,0,.18.33-.12,0,.18.33-.12,0,.18.33-.12,0,.18.33-.12,0,.18.33-.12,0,.18.33-.12,0,.18.33-.12,0,.18.33-.12,0,.18.33-.12,0L66,316l-.12,0,.18.33-.12,0,.18.33-.12,0,.18.33-.12,0,.18.33-.12,0,.18.33-.12,0,.18.33-.12,0,.18.33-.12,0,.18.33-.12,0,.18.33-.12,0,.18.33-.12,0,26.59,49.89.07.13L232.93,319l112.46,30.44.11,0,40-50.49.17-.22-.25-.06.25-.31-.25-.06.25-.31-.25-.06.25-.31-.25-.06.25-.31-.25-.06.25-.31-.25-.06.25-.31-.25-.06.25-.31-.25-.06.25-.31-.25-.06.25-.31-.25-.06.25-.31-.25-.06.25-.31-.25-.06.25-.31-.25-.06.25-.31-.25-.06.25-.31-.25-.06.25-.31-.25-.06.25-.31-.25-.06.25-.31-.25-.06.25-.31-.25-.06.25-.31-.25-.06.25-.31-.25-.06.25-.31-.25-.06.25-.31-.25-.06.25-.31-.25-.06.25-.31-.25-.06.25-.31-.25-.06.25-.31-.25-.06.25-.31-.25-.06.25-.31-.25-.06.25-.31-.25-.06.25-.31-.25-.06.25-.31-.25-.06.25-.31-.25-.06.25-.31-.25-.06.25-.31-.25-.06.25-.31-.25-.06.25-.31-.25-.06.25-.31-.25-.06.25-.31-.25-.06.25-.31-.25-.06.25-.31-.25-.06.25-.31-.25-.06.25-.31-.25-.06.25-.31-.25-.06.25-.31-.25-.06.25-.31-.25-.06.25-.31-.25-.06.25-.31-.25-.06.25-.31-.25-.06.25-.31-.25-.06.25-.31-.25-.06.25-.31-.25-.06.25-.31-.25-.06.25-.31-.25-.06.25-.31-.25-.06.25-.31-.25-.06.25-.31-.25-.06.25-.31-.25-.06.25-.31-.25-.06.25-.31-.25-.06.25-.31-.25-.06.25-.31-.25-.06.25-.31-.25-.06.25-.31-.25-.06.25-.31-.25-.06.25-.31-.25-.06.25-.31-.25-.06.25-.31-.25-.06.25-.31-.25-.06.25-.31-.25-.06.25-.31-.25-.06.25-.31-.25-.06.25-.31-.25-.06.25-.31-.25-.06.25-.31-.25-.06.25-.31-.25-.06.25-.31-.25-.06.25-.31-.25-.06.25-.31-.25-.06.25-.31-.25-.06.25-.31-.25-.06.25-.31-.25-.06.25-.31-.25-.06.25-.31-.25-.06.25-.31-.25-.06.25-.31-.25-.06.25-.31-.25-.06.25-.31-.25-.06.25-.31-.25-.06.25-.31-.25-.06.25-.31-.25-.06.25-.31-.25-.06.25-.31-.25-.06.25-.31-.25-.06.25-.31-.25-.06.25-.31-.25-.06.25-.31-.25-.06.25-.31-.25-.06.25-.31-.25-.06.25-.31-.25-.06.25-.31ZM284.18,194.43l0,.37h0l0,.37h0l0,.37h0l0,.37h0l0,.37h0l0,.37h0l0,.37h0l0,.37h0l0,.37h0l0,.37h0l0,.37h0l0,.37h0l0,.37h0l0,.37h0l0,.37h0l0,.37h0l0,.37h0l0,.37h0l0,.37h0l0,.37h0l0,.37h0l0,.37h0l0,.37h0l0,.37h0l0,.37h0l0,.37h0l0,.37h0l0,.37h0l0,.37h0l0,.37h0l0,.37h0l0,.37h0l0,.37h0l0,.37h0l0,.37h0l0,.37h0l0,.37h0l0,.37h0l0,.37h0l0,.37h0l0,.37h0l0,.37h0l0,.37h0l0,.37h0l0,.37h0l0,.37h0l0,.37h0l0,.37h0l0,.37h0l0,.37h0l0,.37h0l0,.37h0l0,.37h0l0,.37h0l0,.37h0l0,.37h0l0,.37h0l0,.37h0l0,.37h0l0,.37h0l0,.37h0l0,.37h0l0,.37h0l0,.37h0l0,.37h0l0,.37h0l0,.37h0l0,.37h0l0,.37h0l0,.37h0l0,.37h0l0,.37h0l0,.37h0l0,.37h0l0,.37h0l0,.37h0l0,.37h0l0,.37h0l0,.37h0l0,.37h0l0,.37h0l0,.37h0l0,.37h0l0,.37h0l0,.37h0l0,.37h0l0,.37h0l0,.37h0l0,.37h0l0,.37h0l0,.37h0l-.59,10.13-3.54-.82,2.56-42.89Zm-90.93,48.44.09,0,15-49.3c4,.2,67.3-2.45,75.64-2.8l0,.37h0l-2.77,46.34a.18.18,0,0,0,.14.18l3.75.87h0L385,261.72l-.25.31h0l-40.1,49.78L230.34,281.39h-.1l-142,50.7-26.6-49h0l-.18-.33ZM88.39,332.43,230.14,281.8l2.59,36.91L93.36,369.34Zm142.1-50.63,114.09,30.35.68,36.91L233.08,318.7ZM66.92,319.62l.12,0-.18-.33.12,0-.18-.33.12,0-.18-.33.12,0-.18-.33.12,0-.18-.33.12,0-.18-.33.12,0-.18-.33.12,0-.18-.33.12,0-.18-.33.12,0-.18-.33.12,0-.18-.33.12,0-.18-.33.12,0-.18-.33.12,0-.18-.33.12,0-.18-.33.12,0-.18-.33.12,0-.18-.33.12,0-.18-.33.12,0-.18-.33.12,0-.18-.33.12,0-.18-.33.12,0-.18-.33.12,0-.18-.33.12,0-.18-.33.12,0-.18-.33.12,0-.18-.33.12,0-.18-.33.12,0-.18-.33.12,0-.18-.33.12,0-.18-.33.12,0-.18-.33.12,0-.18-.33.12,0-.18-.33.12,0-.18-.33.12,0L65,306.7l.12,0-.18-.33.12,0-.18-.33.12,0-.18-.33.12,0-.18-.33.12,0-.18-.33.12,0-.18-.33.12,0-.18-.33.12,0-.18-.33.12,0-.18-.33.12,0-.18-.33.12,0-.18-.33.12,0-.18-.33.12,0-.18-.33.12,0-.18-.33.12,0-.18-.33.12,0-.18-.33.12,0-.18-.33.12,0-.18-.33.12,0-.18-.33.12,0-.18-.33.12,0-.18-.33.12,0-.18-.33.12,0-.18-.33.12,0-.18-.33.12,0-.18-.33.12,0-.18-.33.12,0-.18-.33.12,0-.18-.33.12,0-.18-.33.12,0-.18-.33.12,0-.18-.33.12,0-.18-.33.12,0-.18-.33.12,0-.18-.33.12,0-.18-.33.12,0-.18-.33.12,0L63,293l.12,0-.18-.33.12,0-.18-.33.12,0-.18-.33.12,0-.18-.33.12,0-.18-.33.12,0-.18-.33.12,0-.18-.33.12,0-.18-.33.12,0-.18-.33.12,0-.18-.33.12,0-.18-.33.12,0-.18-.33.13,0-.18-.33.13,0-.18-.33.13,0-.18-.33.12,0-.18-.33.13,0-.18-.33.12,0L62,286.4l.13,0L62,286l.13,0-.18-.33.13,0-.18-.33.13,0-.18-.33.13,0-.18-.33.13,0-.18-.33.13,0-.18-.33h0L88,332.36l4.88,36.28L67,320l.12,0ZM385,296.77l-.25.31.25.06-.25.31.25.06-.25.31.25.06-.25.31.25.06-.25.31.25.06-.25.31.25.06-39.44,49.8-.68-36.72,40-49.64.12,0-.25.31.25.06-.25.31.25.06-.25.31.25.06-.25.31.25.06-.25.31.25.06-.25.31.25.06-.25.31.25.06-.25.31.25.06-.25.31.25.06-.25.31.25.06-.25.31.25.06-.25.31.25.06-.25.31.25.06-.25.31.25.06-.25.31.25.06-.25.31.25.06-.25.31.25.06-.25.31.25.06-.25.31.25.06-.25.31.25.06-.25.31.25.06-.25.31.25.06-.25.31.25.06-.25.31.25.06-.25.31.25.06-.25.31.25.06-.25.31.25.06-.25.31.25.06-.25.31.25.06-.25.31.25.06-.25.31.25.06-.25.31.25.06-.25.31.25.06-.25.31.25.06-.25.31.25.06-.25.31.25.06-.25.31.25.06-.25.31.25.06-.25.31.25.06-.25.31.25.06-.25.31.25.06-.25.31.25.06-.25.31.25.06-.25.31.25.06-.25.31.25.06-.25.31.25.06-.25.31.25.06-.25.31.25.06-.25.31.25.06-.25.31.25.06-.25.31.25.06-.25.31.25.06-.25.31.25.06-.25.31.25.06-.25.31.25.06-.25.31.25.06-.25.31.25.06-.25.31.25.06-.25.31.25.06-.25.31.25.06-.25.31.25.06-.25.31.25.06-.25.31.25.06-.25.31.25.06-.25.31.25.06-.25.31.25.06-.25.31.25.06-.25.31.25.06-.25.31.25.06-.25.31.25.06-.25.31.25.06-.25.31.25.06-.25.31.25.06-.25.31.25.06-.25.31.25.06-.25.31.25.06-.25.31.25.06-.25.31.25.06-.25.31.25.06-.25.31.25.06-.25.31.25.06-.25.31.25.06-.25.31.25.06-.25.31.25.06-.25.31.25.06-.25.31.25.06-.25.31.25.06-.25.31.25.06-.25.31.25.06-.25.31.25.06-.25.31.25.06-.25.31.25.06-.25.31Z"/>
  </g>
</svg>
